<svg width="601" height="106" viewBox="0 0 601 106" fill="none" xmlns="http://www.w3.org/2000/svg">
<path d="M0.799988 84.5L43.4 0H59.8L17.1 84.5H0.799988ZM84.4 69.8H125.7V84.5H68V0H84.4V69.8ZM135.6 14.6V0H151.9V14.6H135.6ZM135.7 84.5V22.5H151.9V84.5H135.7ZM202.6 22.5H220L197.3 84.5H181.4L159.2 22.5H177L189.7 62L202.6 22.5ZM281.9 58.1H237.6C238.3 67.1 243.9 72.5 252.5 72.5C259.9 72.5 264.6 68.7 266.6 62.8L280.7 67.3C276.8 79 265.8 85.7 252.1 85.7C233.4 85.7 221.3 73.4 221.3 53.6C221.3 34.1 232.5 21 252.6 21C272.7 21.2 283.6 34.9 281.9 58.1ZM237.8 46.4H265.9C264.9 38.5 260.4 34.1 252.3 34.1C244 34.1 238.9 38.9 237.8 46.4ZM341.3 84.5L324.8 51.3H310.7V84.5H294.3V0H326.4C347.4 0 357.8 9.79999 357.8 25.4C357.8 36.9 352 44.4 341.6 48.5L360.3 84.5H341.3ZM310.6 14.7V36.7H326.8C336.6 36.7 340.9 32.4 340.9 25.3C340.9 18.1 336.8 14.6 326.9 14.6H310.6V14.7ZM410.3 84.5C409.6 83.4 408.8 81.4 408.4 78.8C404 83.6 397.4 85.9 390 85.9C373.3 85.9 362.1 74.3 362.1 53.8C362.1 32.6 374.2 21.2 390.3 21.2C397.3 21.2 403 23.4 407.2 28V22.5H423V66.4C423 72.5 423.7 79.2 424.9 84.5H410.3ZM407.2 53.6C407.2 41.1 401.3 34.4 392.7 34.4C382.9 34.4 377.7 42.4 377.7 53.7C377.7 65.7 383.4 72.5 392.8 72.5C401.9 72.5 407.2 65.5 407.2 53.6ZM526.8 51.2V84.5H510.6V51.3C510.6 45.2 510.6 35.1 501.2 35.1C493.9 35.1 489.8 40.7 489.8 51.4V84.4H473.6V51.2C473.6 45 473.6 35 464.1 35C457.1 35 452.9 40.6 452.9 51V84.3H436.7V22.3H453V27.3C457.7 22.9 462.5 21 468.6 21C476.8 21 482.9 24.2 486.4 29.6C490.9 24.5 496.9 21.1 506 21.1C526.8 21.2 526.8 39 526.8 51.2ZM600.8 53.1C600.8 73.7 589.3 85.8 573.5 85.8C566.6 85.8 560.6 83.5 556.5 79.7V106H540.3V22.4H556.5V28.7C560.6 23.9 566.5 21 573.8 21C590.4 21.1 600.8 34.1 600.8 53.1ZM585.1 53.3C585.1 41.4 579.7 34.4 570.7 34.4C561.6 34.4 556.1 41.6 556.1 53.6C556.1 65.5 561.6 72.5 570.6 72.5C579.7 72.5 585.1 65.1 585.1 53.3Z" fill="black"/>
</svg>