<?xml version="1.0" encoding="UTF-8" standalone="no"?>
<svg
   xmlns:dc="http://purl.org/dc/elements/1.1/"
   xmlns:cc="http://creativecommons.org/ns#"
   xmlns:rdf="http://www.w3.org/1999/02/22-rdf-syntax-ns#"
   xmlns:svg="http://www.w3.org/2000/svg"
   xmlns="http://www.w3.org/2000/svg"
   xmlns:sodipodi="http://sodipodi.sourceforge.net/DTD/sodipodi-0.dtd"
   xmlns:inkscape="http://www.inkscape.org/namespaces/inkscape"
   viewBox="0 0 1000 259.97272"
   version="1.1"
   id="svg365"
   sodipodi:docname="A.svg"
   width="1000"
   height="259.97272"
   inkscape:version="0.92.4 (5da689c313, 2019-01-14)">
  <metadata
     id="metadata371">
    <rdf:RDF>
      <cc:Work
         rdf:about="">
        <dc:format>image/svg+xml</dc:format>
        <dc:type
           rdf:resource="http://purl.org/dc/dcmitype/StillImage" />
        <dc:title></dc:title>
      </cc:Work>
    </rdf:RDF>
  </metadata>
  <defs
     id="defs369" />
  <sodipodi:namedview
     pagecolor="#ffffff"
     bordercolor="#111111"
     borderopacity="1"
     objecttolerance="10"
     gridtolerance="10"
     guidetolerance="10"
     inkscape:pageopacity="0"
     inkscape:pageshadow="2"
     inkscape:window-width="1920"
     inkscape:window-height="1017"
     id="namedview367"
     showgrid="false"
     fit-margin-top="0"
     fit-margin-left="0"
     fit-margin-right="0"
     fit-margin-bottom="0"
     inkscape:zoom="0.94034091"
     inkscape:cx="484.97156"
     inkscape:cy="156.44822"
     inkscape:window-x="1912"
     inkscape:window-y="-8"
     inkscape:window-maximized="1"
     inkscape:current-layer="svg365" />
  <path
     d="m 90.361932,142.35 c 23.961928,7.03068 30.028978,15.1 30.028978,39.55455 v 28.625 h 46.82273 v -44.24546 c 0,-23.67386 -11.29319,-37.21477 -35.80455,-42.67159 L 100.83,116.58296 c 48.48932,-1.81932 72.72682,-20.03716 72.72682,-54.65421 V 60.36978 C 173.55682,23.93398 146.27841,0 91.737159,0 H 0 v 210.52955 h 46.839318 v -80.925 z m 0.275,-110.07125 c 23.961928,0 35.530118,11.1875 35.530118,30.70455 v 1.55886 c 0,19.51705 -11.56819,30.70455 -35.530118,30.70455 H 46.839318 V 32.26341 H 90.636932 Z M 696.15114,26.28762 V 25.2483 c 0,-12.74637 -9.64319,-22.63482 -25.3375,-22.63482 -15.69319,0 -25.35228,9.88845 -25.35228,22.63482 v 1.03932 c 0,12.74636 9.64205,22.63488 25.35228,22.63488 15.71022,0 25.3375,-9.88852 25.3375,-22.63488 z M 520.66932,87.69671 h 22.58636 v 73.65102 c 0,36.43636 11.84318,49.18182 51.51477,49.18182 h 37.4716 v -28.625 h -28.65341 c -12.11819,0 -16.26023,-3.89773 -16.26023,-14.30568 V 87.71193 h 43.52273 V 59.08603 H 587.32841 V 12.22682 h -44.07273 v 46.84386 h -22.58636 z m -343.52159,47.88284 c 0,43.72613 27.82954,77.02954 67.77613,77.02954 24.51137,0 42.69773,-11.70795 52.06478,-31.225 v 29.14546 h 44.07272 V 59.07068 h -44.07272 v 29.14557 c -9.36705,-19.51693 -27.55341,-31.22409 -52.06478,-31.22409 -39.94659,0 -67.77613,33.30273 -67.77613,77.0283 z m 347.66363,0 v -1.55909 c 0,-43.71034 -27.82841,-77.0283 -67.77613,-77.0283 -24.51137,0 -42.69659,11.70716 -52.06478,31.22409 V 59.07068 h -44.07272 v 200.90205 h 44.07272 v -78.58864 c 9.36819,19.51705 27.55341,31.225 52.06478,31.225 39.94772,0 67.77613,-33.30341 67.77613,-77.02954 z M 1000,162.90682 h -39.67159 c -5.51705,12.74659 -17.06932,20.55568 -30.28864,20.55568 -20.93522,0 -34.42954,-13.26591 -36.90454,-40.07273 H 1000 v -6.25113 c 0,-49.70182 -29.7375,-80.14648 -76.30227,-80.14648 -43.79773,0 -75.47728,33.04284 -75.47728,77.0283 v 1.55909 c 0,46.06477 32.50455,77.02954 79.60341,77.02954 36.07955,0 63.35796,-17.69886 72.16023,-49.70227 M 856.74773,59.07068 H 818.17614 L 782.92045,168.88296 747.66591,59.07068 h -47.09773 l 55.09091,151.45887 h 45.99773 z m -163.91364,0 h -44.07273 v 151.45887 h 44.07273 z m 233.88977,27.06705 c 17.08523,0 29.1875,11.44739 32.22841,32.26341 h -63.89204 c 3.85113,-21.33568 15.41932,-32.26341 31.67954,-32.26341 m -704.96818,49.44182 v -1.55909 c 0,-28.10591 15.43409,-45.28455 38.29659,-45.28455 22.86137,0 38.29659,17.17864 38.29659,45.28455 v 1.55909 c 0,28.10682 -15.43522,45.28522 -38.29659,45.28522 -22.8625,0 -38.29659,-17.1784 -38.29659,-45.28522 z m 258.4,0 c 0,28.10682 -15.43409,45.28522 -38.29659,45.28522 -22.86136,0 -38.29659,-17.1784 -38.29659,-45.28522 v -1.55909 c 0,-28.10591 15.43523,-45.28455 38.29659,-45.28455 22.8625,0 38.29659,17.17864 38.29659,45.28455 z"
     id="path363"
     inkscape:connector-curvature="0"
     style="stroke-width:11.36363602" />
</svg>
