<svg xmlns="http://www.w3.org/2000/svg" xmlns:xlink="http://www.w3.org/1999/xlink" width="1022.15" height="98.65" viewBox="0 0 1022.15 98.65"><defs><linearGradient id="a" x1="489.81" y1="508.1" x2="545.14" y2="603.95" gradientTransform="matrix(1, 0, 0, -1, 0, 1080)" gradientUnits="userSpaceOnUse"><stop offset="0" stop-color="#85f"/><stop offset="1" stop-color="#00b6ff"/></linearGradient><linearGradient id="b" x1="530.33" y1="569.98" x2="540.4" y2="611.57" gradientTransform="matrix(1, 0, 0, -1, 0, 1080)" gradientUnits="userSpaceOnUse"><stop offset="0.07" stop-color="#fff"/><stop offset="0.89" stop-color="#009fff"/></linearGradient><linearGradient id="c" x1="569.17" y1="565.3" x2="604.29" y2="595.33" xlink:href="#b"/><linearGradient id="d" x1="523.4" y1="539.16" x2="578.42" y2="520.11" gradientTransform="matrix(1, 0, 0, -1, 0, 1080)" gradientUnits="userSpaceOnUse"><stop offset="0" stop-color="#4036c1"/><stop offset="0.98" stop-color="#539eff"/></linearGradient></defs><path d="M526.89,587.23l65.9-65.91a7.06,7.06,0,0,0,0-10l0,0L575.48,494a11.36,11.36,0,0,0-8.05-3.34h-91a11.4,11.4,0,0,0-8.06,3.34L451,511.35a7,7,0,0,0-.1,9.9l.1.1,65.9,65.91a7.06,7.06,0,0,0,10,0Z" transform="translate(-448.9 -490.67)" style="fill:url(#a)"/><path d="M467.84,494.53a10,10,0,0,1,9.11-2.74L591.39,515a3.51,3.51,0,0,1,2.73,4.13,3.26,3.26,0,0,1-.22.69,7,7,0,0,0-1.11-8.5L575.48,494a11.36,11.36,0,0,0-8.05-3.34h-91a11.4,11.4,0,0,0-8.06,3.34Z" transform="translate(-448.9 -490.67)" style="opacity:0.4000000059604645;isolation:isolate;fill:url(#b)"/><path d="M569.66,495.73,563,509.26,591.39,515a3.51,3.51,0,0,1,2.73,4.13,3.26,3.26,0,0,1-.22.69,7,7,0,0,0-1.11-8.5L575.48,494a11.36,11.36,0,0,0-8.05-3.34h-.88a3.48,3.48,0,0,1,3.11,5.06Z" transform="translate(-448.9 -490.67)" style="opacity:0.4000000059604645;isolation:isolate;fill:url(#c)"/><path d="M593.9,519.86a3.5,3.5,0,0,0-1.82-4.6,3.26,3.26,0,0,0-.69-.22L563,509.26l-38.2,77.09a4.69,4.69,0,0,1-5.59,2.4,7.06,7.06,0,0,0,7.68-1.52l65.9-65.91a6.33,6.33,0,0,0,1.11-1.46Z" transform="translate(-448.9 -490.67)" style="fill:url(#d)"/><path d="M683.31,569.48H671.5V513.7H650.38V502.85h54.06V513.7H683.31Z" transform="translate(-448.9 -490.67)" style="fill:#2e40aa"/><path d="M759.55,569.48l-16.42-23.22H728.42v23.22H716.81V502.85h29.7a34.11,34.11,0,0,1,10.33,1.48,22.35,22.35,0,0,1,7.8,4.19,17.93,17.93,0,0,1,4.9,6.66,23.74,23.74,0,0,1,.53,16.28,19.36,19.36,0,0,1-3.28,5.8,20.09,20.09,0,0,1-5,4.28,25,25,0,0,1-6.43,2.72l18,25.22Zm-3.82-53.24q-3.63-2.82-10.21-2.82h-17.1v22.46h17.19q6.3,0,10-3.06a10.11,10.11,0,0,0,3.72-8.22Q759.36,519.06,755.73,516.24Z" transform="translate(-448.9 -490.67)" style="fill:#2e40aa"/><path d="M834.93,513.42H797.24v17.13h33.41v10.57H797.24v17.8h38.17v10.56H785.63V502.85h49.3Z" transform="translate(-448.9 -490.67)" style="fill:#2e40aa"/><path d="M913.18,569.48H900.8l-6.75-16.09H862.54l-6.85,16.09h-12L873,502.38h10.85Zm-34.94-53.11L866.82,543h22.94Z" transform="translate(-448.9 -490.67)" style="fill:#2e40aa"/><path d="M934,523.7a7.09,7.09,0,0,0,2.44,2.66,19,19,0,0,0,4.86,2.29c2.07.7,4.69,1.43,7.88,2.19a75.52,75.52,0,0,1,9.3,2.95,23,23,0,0,1,6.73,4,15.53,15.53,0,0,1,4,5.42,17.65,17.65,0,0,1,1.39,7.28,19.52,19.52,0,0,1-1.75,8.48,17.88,17.88,0,0,1-4.86,6.28,21.47,21.47,0,0,1-7.49,3.9,32.5,32.5,0,0,1-9.6,1.33,42.2,42.2,0,0,1-14.76-2.61,40.26,40.26,0,0,1-13-8l7.05-8.37a40.84,40.84,0,0,0,9.8,6.42,27.09,27.09,0,0,0,11.23,2.24q5.43,0,8.62-2.29a7.23,7.23,0,0,0,3.19-6.18,8,8,0,0,0-.62-3.24,6.61,6.61,0,0,0-2.3-2.62,18.68,18.68,0,0,0-4.58-2.23,77.13,77.13,0,0,0-7.58-2.19,82.54,82.54,0,0,1-9.5-2.76,24.3,24.3,0,0,1-7-3.81,15.07,15.07,0,0,1-4.3-5.52,19,19,0,0,1-1.48-7.9,18.39,18.39,0,0,1,1.7-8,18.63,18.63,0,0,1,4.68-6.14,20.52,20.52,0,0,1,7.15-4,28.85,28.85,0,0,1,9.13-1.38A38.27,38.27,0,0,1,957.58,504a39.15,39.15,0,0,1,11,6.24l-6.28,8.85a41,41,0,0,0-9-5.09,24.36,24.36,0,0,0-9-1.76c-3.43,0-6.1.77-8,2.33a7.06,7.06,0,0,0-2.85,5.66A8.22,8.22,0,0,0,934,523.7Z" transform="translate(-448.9 -490.67)" style="fill:#2e40aa"/><path d="M1040.44,540.64a37.76,37.76,0,0,1-2,13,25.43,25.43,0,0,1-5.76,9.38,23.24,23.24,0,0,1-9,5.61,35.36,35.36,0,0,1-11.85,1.86,34.8,34.8,0,0,1-11.71-1.86,23.66,23.66,0,0,1-9-5.57,24.67,24.67,0,0,1-5.71-9.18,37.12,37.12,0,0,1-2-12.71V502.85H995v37.89q0,9.33,4.5,14.18t12.44,4.85q7.84,0,12.35-4.66t4.5-13.9V502.85h11.61Z" transform="translate(-448.9 -490.67)" style="fill:#2e40aa"/><path d="M1099.26,569.48l-16.42-23.22h-14.71v23.22h-11.61V502.85h29.7a34.11,34.11,0,0,1,10.33,1.48,22.35,22.35,0,0,1,7.8,4.19,18.07,18.07,0,0,1,4.91,6.66,23.74,23.74,0,0,1,.52,16.28,19.36,19.36,0,0,1-3.28,5.8,20.09,20.09,0,0,1-5,4.28,25,25,0,0,1-6.43,2.72l18,25.22Zm-3.82-53.24q-3.63-2.82-10.21-2.82h-17.1v22.46h17.19q6.3,0,10-3.06a10.11,10.11,0,0,0,3.72-8.22q0-5.54-3.6-8.36Z" transform="translate(-448.9 -490.67)" style="fill:#2e40aa"/><path d="M1174.65,513.42H1137v17.13h33.41v10.57H1137v17.8h38.17v10.56h-49.78V502.85h49.31Z" transform="translate(-448.9 -490.67)" style="fill:#2e40aa"/><path d="M1275.35,549.26a30.9,30.9,0,0,1-7.28,10.61,34.52,34.52,0,0,1-11.23,7,39,39,0,0,1-14.33,2.57h-24.84V502.85h24.84a39.4,39.4,0,0,1,14.33,2.52,34.09,34.09,0,0,1,11.23,7,31,31,0,0,1,7.28,10.57,33.44,33.44,0,0,1,2.57,13.13A33.92,33.92,0,0,1,1275.35,549.26ZM1264,527.13a21.61,21.61,0,0,0-4.68-7.21,20.89,20.89,0,0,0-7.3-4.78,25.3,25.3,0,0,0-9.54-1.72h-13.17v45.5h13.17a26.11,26.11,0,0,0,9.54-1.68,20.63,20.63,0,0,0,7.3-4.68,21.19,21.19,0,0,0,4.68-7.17A25.76,25.76,0,0,0,1264,527.13Z" transform="translate(-448.9 -490.67)" style="fill:#2e40aa"/><path d="M1351.31,569.48h-12.38l-6.75-16.09h-31.51l-6.85,16.09h-12l29.32-67.1H1322Zm-34.94-53.11L1305,543h22.94Z" transform="translate(-448.9 -490.67)" style="fill:#2e40aa"/><path d="M1382.34,569.48h-11.81V513.7H1349.4V502.85h54.07V513.7h-21.13Z" transform="translate(-448.9 -490.67)" style="fill:#2e40aa"/><path d="M1471.05,569.48h-12.38l-6.75-16.09h-31.51l-6.85,16.09h-12l29.32-67.1h10.85Zm-34.93-53.11L1424.69,543h22.94Z" transform="translate(-448.9 -490.67)" style="fill:#2e40aa"/></svg>