<svg width="17" height="17" viewBox="0 0 17 17" fill="none" xmlns="http://www.w3.org/2000/svg">
<circle cx="8.5" cy="8.5" r="8" fill="transparent"/>
<path d="M5.21191 8.108H7.74391V5.576H9.25591V8.108H11.7879V9.62H9.25591V12.152H7.74391V9.62H5.21191V8.108Z" fill="#000"/>
<path fill-rule="evenodd" clip-rule="evenodd" d="M8.5 2.16667C5.0022 2.16667 2.16667 5.0022 2.16667 8.5C2.16667 11.9978 5.0022 14.8333 8.5 14.8333C11.9978 14.8333 14.8333 11.9978 14.8333 8.5C14.8333 5.0022 11.9978 2.16667 8.5 2.16667ZM1.5 8.5C1.5 4.63401 4.63401 1.5 8.5 1.5C12.366 1.5 15.5 4.63401 15.5 8.5C15.5 12.366 12.366 15.5 8.5 15.5C4.63401 15.5 1.5 12.366 1.5 8.5Z" fill="#000"/>
</svg>
