<svg width="24" height="24" viewBox="0 0 24 24" fill="none" xmlns="http://www.w3.org/2000/svg">
<path fill-rule="evenodd" clip-rule="evenodd" d="M12.9964 7.39286L11.8393 4.5L10.6821 7.39286H7.5L10.1036 9.41786L9.23571 12.6L11.8393 10.8643L14.4429 12.6L13.575 9.41786L16.1786 7.39286H12.9964ZM16.35 14.5L19.5 23.1281L15.675 21.2156L13.2844 23.1281L11.85 16.4906L16.35 14.5ZM7 15L4.5 22.5L8 20.8529L10.1875 22.5L11.5 16.7837L7 15Z" fill="#97DAFF"/>
<path fill-rule="evenodd" clip-rule="evenodd" d="M5.26345 11.8658C5.04891 11.4382 4.87431 10.9826 4.74565 10.5025C4.6696 10.2186 4.61174 9.93418 4.57135 9.65039C4.52577 9.32412 4.5022 8.9908 4.5022 8.65198C4.5022 7.06076 5.02199 5.59095 5.90103 4.40308C6.56765 3.50225 7.44088 2.76357 8.4507 2.25704C8.87462 2.04537 9.326 1.87293 9.80147 1.74553C10.0874 1.66891 10.3739 1.61075 10.6596 1.57032C10.984 1.52526 11.3154 1.50198 11.6522 1.50198C12.1995 1.50198 12.7324 1.56346 13.2444 1.6799C13.2597 1.68341 13.275 1.68697 13.2903 1.69058C13.2935 1.69135 13.2968 1.69209 13.3 1.69279C15.8433 2.29271 17.8622 4.25078 18.549 6.75936C18.5515 6.77336 18.5546 6.78736 18.5584 6.80134C18.6461 7.12885 18.7097 7.45715 18.7501 7.78432C18.7845 8.06873 18.8022 8.35829 18.8022 8.65198C18.8022 9.11964 18.7574 9.57661 18.6718 10.0189C18.1642 12.6149 16.2298 14.8275 13.5026 15.5583C12.8977 15.7203 12.2902 15.7998 11.692 15.8035C11.6788 15.8025 11.6656 15.802 11.6522 15.802C10.0256 15.802 8.52582 15.2588 7.32442 14.3439C6.46295 13.6879 5.75488 12.8408 5.26345 11.8658ZM9.94276 16.6224C10.3054 16.7005 10.675 16.7541 11.0492 16.7818L9.89968 22.1011L8.13957 20.693C7.98728 20.5712 7.77805 20.549 7.60361 20.6362L4.88565 21.9952L7.18806 15.4717C8.01413 16.0136 8.9446 16.4094 9.94276 16.6224ZM3.57976 9.78092C3.70494 10.6843 3.97822 11.5404 4.37427 12.3239C4.86726 13.3035 5.54429 14.1536 6.34976 14.8423L3.53073 22.8295C3.46289 23.0218 3.51851 23.2359 3.67132 23.3708C3.82413 23.5057 4.04352 23.5343 4.22583 23.4432L7.76469 21.6737L9.9055 23.3864C10.0407 23.4945 10.2222 23.5251 10.3854 23.4671C10.5485 23.4091 10.67 23.2708 10.7066 23.1016L11.8126 17.9832L12.9477 23.2358C12.9843 23.4051 13.1058 23.5433 13.269 23.6013C13.4321 23.6593 13.6136 23.6288 13.7488 23.5207L15.8896 21.808L19.4285 23.5774C19.6108 23.6686 19.8302 23.64 19.983 23.5051C20.1358 23.3702 20.1914 23.156 20.1236 22.9638L17.2548 14.8357C17.2321 14.7712 17.1974 14.7143 17.1542 14.6666C17.8228 14.0539 18.3818 13.3357 18.8114 12.5463C18.819 12.5347 18.8261 12.5226 18.8328 12.5102C19.1968 11.8341 19.4681 11.1007 19.6297 10.3274C19.8116 9.46476 19.855 8.56324 19.7417 7.65425C19.3184 4.18601 16.7164 1.39061 13.3459 0.678208C12.4505 0.487276 11.513 0.445642 10.569 0.573327C9.65357 0.694896 8.78611 0.968421 7.99284 1.36772C5.79656 2.46816 4.24858 4.49289 3.70955 6.81723C3.48879 7.76918 3.43727 8.77138 3.57976 9.78092ZM16.3606 15.3068L18.7687 22.1295L16.0507 20.7705C15.8763 20.6833 15.667 20.7055 15.5147 20.8273L13.7546 22.2354L12.5695 16.7512C12.9661 16.7058 13.3642 16.6306 13.7614 16.5242C14.721 16.2671 15.5945 15.849 16.3606 15.3068ZM11.9416 3.70827C12.1461 3.70827 12.3299 3.83275 12.4059 4.02258L13.4373 6.60113H16.2809C16.4945 6.60113 16.6845 6.73682 16.7538 6.93886C16.8232 7.1409 16.7565 7.36467 16.5879 7.49581L14.2474 9.31616L15.0276 12.1767C15.0824 12.3779 15.0067 12.592 14.8375 12.7139C14.6684 12.8358 14.4413 12.84 14.2678 12.7243L11.9416 11.1735L9.61539 12.7243C9.4419 12.84 9.21484 12.8358 9.04569 12.7139C8.87653 12.592 8.8008 12.3779 8.85566 12.1767L9.63581 9.31616L7.29536 7.49581C7.12675 7.36467 7.06007 7.1409 7.12939 6.93886C7.19871 6.73682 7.38873 6.60113 7.60233 6.60113H10.446L11.4774 4.02258C11.5533 3.83275 11.7372 3.70827 11.9416 3.70827ZM11.9416 5.55457L11.2487 7.28683C11.1728 7.47666 10.9889 7.60113 10.7845 7.60113H9.0596L10.5129 8.73146C10.6722 8.85538 10.7414 9.06295 10.6883 9.25769L10.1718 11.1515L11.6643 10.1565C11.8322 10.0446 12.051 10.0446 12.219 10.1565L13.7114 11.1515L13.1949 9.25769C13.1418 9.06295 13.211 8.85538 13.3704 8.73146L14.8236 7.60113H13.0988C12.8943 7.60113 12.7105 7.47666 12.6345 7.28683L11.9416 5.55457Z" fill="#004580"/>
</svg>
