<svg width="58" height="53" viewBox="0 0 58 53" fill="none" xmlns="http://www.w3.org/2000/svg">
<path d="M56.448 50.5234H1.73763C1.32073 50.5234 1 50.8438 1 51.2602C1 51.6766 1.32073 51.9969 1.73763 51.9969H56.448C56.8649 51.9969 57.1856 51.6445 57.1856 51.2602C57.1856 50.8758 56.8649 50.5234 56.448 50.5234Z" fill="#030A40" stroke="#030A40" stroke-width="0.695115"/>
<path d="M5.26561 47.4472H16.9068C17.3237 47.4472 17.6444 47.1269 17.6444 46.7105V21.2133C17.6444 20.7969 17.3237 20.4766 16.9068 20.4766H5.26561C4.84871 20.4766 4.52808 20.7969 4.52808 21.2133V46.7105C4.52808 47.1269 4.84871 47.4472 5.26561 47.4472ZM16.1693 21.982V45.9738H6.03534V21.982H16.1693Z" fill="#030A40" stroke="#030A40" stroke-width="0.695115"/>
<path d="M23.2564 47.446H34.8976C35.3145 47.446 35.6352 47.1257 35.6352 46.7092V1.73673C35.6352 1.32032 35.3145 1 34.8976 1H23.2564C22.8395 1 22.5188 1.32032 22.5188 1.73673V46.7092C22.5188 47.1257 22.8716 47.446 23.2564 47.446ZM34.16 2.47346V45.9405H24.0261V2.47346H34.16Z" fill="#030A40" stroke="#030A40" stroke-width="0.695115"/>
<path d="M41.2473 47.445H52.8885C53.3054 47.445 53.6261 47.1247 53.6261 46.7083V11.6977C53.6261 11.2813 53.3054 10.9609 52.8885 10.9609H41.2473C40.8304 10.9609 40.5098 11.2813 40.5098 11.6977V46.7083C40.5098 47.1247 40.8304 47.445 41.2473 47.445ZM52.1509 12.4344V45.9395H42.017V12.4344H52.1509Z" fill="#030A40" stroke="#030A40" stroke-width="0.695115"/>
</svg>
