<svg width="65" height="54" viewBox="0 0 65 54" fill="none" xmlns="http://www.w3.org/2000/svg">
<path d="M52.1694 14.9479C52.1694 14.9479 51.8844 14.9479 51.7062 14.9479C50.9579 7.08217 44.2589 0.996094 36.3127 0.996094C29.8274 0.996094 24.0547 5.01788 21.7742 11.0684C21.2753 10.9972 20.7765 10.9617 20.2777 10.9617C15.1821 10.9617 10.6922 14.6631 9.62321 19.6104C4.84834 19.8951 1 23.9526 1 28.793C1 33.847 5.13342 37.9756 10.1934 37.9756H28.4733C28.9365 37.9756 29.2929 37.6197 29.2929 37.157C29.2929 36.6944 28.9365 36.3384 28.4733 36.3384H10.1934C6.02426 36.3384 2.6391 32.9572 2.6391 28.793C2.6391 24.6288 6.02422 21.2832 10.1577 21.2832H10.3003C10.6922 21.2832 11.0486 20.9985 11.1199 20.5714C11.7613 16.0513 15.6809 12.6701 20.242 12.6701C20.8834 12.6701 21.4891 12.7412 22.0949 12.848H22.2731C22.6294 12.848 22.9502 12.6344 23.0571 12.2785C24.91 6.5483 30.1837 2.6689 36.2413 2.6689C43.6887 2.6689 49.7464 8.47031 50.0314 15.9089C50.0314 16.1225 50.1384 16.336 50.3165 16.4784C50.4591 16.6208 50.6372 16.6563 50.9579 16.6563C51.3855 16.6207 51.7419 16.5852 52.0982 16.5852C57.5145 16.5852 61.9686 20.9985 61.9686 26.444C61.9686 31.8895 57.5501 36.3028 52.0982 36.3028H36.1344C35.6712 36.3028 35.3148 36.6587 35.3148 37.1214C35.3148 37.5841 35.6712 37.9401 36.1344 37.9401H52.0982C58.441 37.9401 63.6077 32.7793 63.6077 26.444C63.6077 20.1087 58.441 14.9479 52.0982 14.9479H52.1694Z" fill="#030A40" stroke="#030A40" stroke-width="1.1"/>
<path d="M42.5484 32.3526C42.8691 32.0323 42.8691 31.4983 42.5484 31.178L32.9273 21.5684C32.6066 21.248 32.0721 21.248 31.7514 21.5684L22.1304 31.178C21.8097 31.4983 21.8097 32.0323 22.1304 32.3526C22.4511 32.6729 22.9856 32.6729 23.3063 32.3526L31.502 24.1666V52.177C31.502 52.6397 31.8583 52.9956 32.3215 52.9956C32.7847 52.9956 33.1411 52.6397 33.1411 52.177V24.1666L41.3367 32.3526C41.6574 32.6729 42.2276 32.6729 42.5127 32.3526H42.5484Z" fill="#030A40" stroke="#030A40" stroke-width="1.1"/>
</svg>
