<svg width="251" height="103" viewBox="0 0 251 103" fill="none" xmlns="http://www.w3.org/2000/svg">
<path d="M134.406 45.2393L174.468 45.2393C178.353 45.2393 181.54 42.093 181.54 38.2583C181.54 34.4237 178.353 31.2774 174.468 31.2774L134.406 31.2773C130.521 31.2773 127.334 34.4237 127.334 38.2583C127.334 42.0929 130.521 45.2393 134.406 45.2393Z" fill="url(#paint0_linear_432_1713)"/>
<circle cx="147.399" cy="38.2544" r="6.98096" fill="#CDF200"/>
<path d="M134.406 66.7354L174.468 66.7354C178.353 66.7354 181.54 63.589 181.54 59.7544C181.54 55.9198 178.353 52.7734 174.468 52.7734L134.406 52.7734C130.521 52.7734 127.334 55.9198 127.334 59.7544C127.334 63.589 130.521 66.7354 134.406 66.7354Z" fill="url(#paint1_linear_432_1713)"/>
<circle cx="161.419" cy="59.7544" r="6.98096" fill="#CDF200"/>
<path d="M248.617 0H191.749C190.963 0 190.358 0.636186 190.358 1.33014V100.739C190.358 101.491 191.023 102.069 191.749 102.069H248.617C249.404 102.069 250.009 101.433 250.009 100.739V1.33014C250.009 0.578357 249.404 0 248.617 0ZM193.141 99.4086V2.71799H247.165V99.4086H193.141Z" fill="white"/>
<path d="M242.037 10.6055H198.33C197.571 10.6055 196.986 11.2323 196.986 11.9729V83.47C196.986 84.2106 197.629 84.8374 198.33 84.8374H242.037C242.797 84.8374 243.381 84.2106 243.381 83.47V11.9729C243.381 11.2323 242.739 10.6055 242.037 10.6055ZM199.733 82.1028V13.2831H240.693V82.1028H199.733Z" fill="white"/>
<path d="M215.561 7.95192H226.131C226.89 7.95192 227.474 7.3315 227.474 6.59821C227.474 5.86491 226.832 5.30078 226.131 5.30078H215.561C214.802 5.30078 214.218 5.92132 214.218 6.59821C214.218 7.27509 214.861 7.95192 215.561 7.95192Z" fill="white"/>
<path d="M220.184 87.4883C217.588 87.4883 215.544 89.5624 215.544 92.1278C215.544 94.6931 217.643 96.7673 220.184 96.7673C222.725 96.7673 224.823 94.6931 224.823 92.1278C224.823 89.5624 222.725 87.4883 220.184 87.4883ZM220.184 94.1473C219.024 94.1473 218.085 93.2194 218.085 92.1278C218.085 91.0361 219.024 90.1083 220.184 90.1083C221.344 90.1083 222.283 91.0361 222.283 92.1278C222.283 93.2194 221.344 94.1473 220.184 94.1473Z" fill="white"/>
<path d="M116.569 0H1.59768C0.732234 0 0 0.731511 0 1.52944V82.5196C0 83.384 0.732234 84.1156 1.59768 84.1156H47.7326V92.3608H38.479C37.6135 92.3608 36.9478 93.0258 36.9478 93.8902V100.473C36.9478 101.338 37.6135 102.069 38.479 102.069H79.6875C80.5529 102.069 81.2186 101.338 81.2186 100.473V93.8902C81.2186 93.0258 80.5529 92.3608 79.6875 92.3608H70.4339V84.1156H116.569C117.434 84.1156 118.1 83.384 118.1 82.5196V1.52944C118.1 0.665017 117.434 0 116.569 0ZM3.12892 80.9903V3.12524H115.038V80.9903H3.12892ZM50.7949 92.3608V84.1156H67.305V92.3608H50.7949ZM78.0897 95.486V98.9437H40.0101V95.486H78.0897Z" fill="white"/>
<path d="M107.05 9.50781H11.0521C10.1867 9.50781 9.521 10.2391 9.521 11.0371V73.0764C9.521 73.9409 10.1867 74.6722 11.0521 74.6722H107.05C107.915 74.6722 108.581 73.9409 108.581 73.0764V11.0371C108.581 10.1726 107.915 9.50781 107.05 9.50781ZM12.5834 71.547V12.6331H105.452V71.547H12.5834Z" fill="white"/>
<defs>
<linearGradient id="paint0_linear_432_1713" x1="181.768" y1="38.0024" x2="127.334" y2="38.0024" gradientUnits="userSpaceOnUse">
<stop stop-color="#B7C2EA" stop-opacity="0.4"/>
<stop offset="0.432292" stop-color="#B7C2EA"/>
<stop offset="0.609375" stop-color="#B7C2EA"/>
<stop offset="1" stop-color="#B7C2EA" stop-opacity="0.4"/>
</linearGradient>
<linearGradient id="paint1_linear_432_1713" x1="181.768" y1="59.4985" x2="127.334" y2="59.4985" gradientUnits="userSpaceOnUse">
<stop stop-color="#B7C2EA" stop-opacity="0.4"/>
<stop offset="0.432292" stop-color="#B7C2EA"/>
<stop offset="0.609375" stop-color="#B7C2EA"/>
<stop offset="1" stop-color="#B7C2EA" stop-opacity="0.4"/>
</linearGradient>
</defs>
</svg>
