<svg width="24" height="24" viewBox="0 0 24 24" fill="none" xmlns="http://www.w3.org/2000/svg">
<path fill-rule="evenodd" clip-rule="evenodd" d="M6 3.5C5.17157 3.5 4.5 4.17157 4.5 5C4.5 5.82843 5.17157 6.5 6 6.5C6.82843 6.5 7.5 5.82843 7.5 5C7.5 4.17157 6.82843 3.5 6 3.5ZM3.5 5C3.5 3.61929 4.61929 2.5 6 2.5C7.38071 2.5 8.5 3.61929 8.5 5C8.5 5.50954 8.34756 5.98348 8.0858 6.3787L8.85355 7.14645C9.04882 7.34171 9.04882 7.65829 8.85355 7.85355C8.65829 8.04882 8.34171 8.04882 8.14645 7.85355L7.3787 7.0858C6.98348 7.34756 6.50954 7.5 6 7.5C4.61929 7.5 3.5 6.38071 3.5 5ZM10.5 9C10.5 8.17157 11.1716 7.5 12 7.5C12.8284 7.5 13.5 8.17157 13.5 9C13.5 9.82843 12.8284 10.5 12 10.5C11.1716 10.5 10.5 9.82843 10.5 9ZM13.6986 10.8344C14.1915 10.3777 14.5 9.7249 14.5 9C14.5 7.61929 13.3807 6.5 12 6.5C10.6193 6.5 9.5 7.61929 9.5 9C9.5 9.7249 9.80853 10.3777 10.3014 10.8344C8.6616 11.5078 7.5 13.1241 7.5 15C7.5 15.2761 7.72386 15.5 8 15.5H16C16.2761 15.5 16.5 15.2761 16.5 15C16.5 13.1241 15.3384 11.5078 13.6986 10.8344ZM12 11.5C10.2458 11.5 8.78068 12.8104 8.53593 14.5H15.4641C15.2193 12.8104 13.7542 11.5 12 11.5ZM1.5 12C1.5 11.1716 2.17157 10.5 3 10.5C3.82843 10.5 4.5 11.1716 4.5 12C4.5 12.8284 3.82843 13.5 3 13.5C2.17157 13.5 1.5 12.8284 1.5 12ZM5.44999 11.5C5.21836 10.3589 4.20948 9.5 3 9.5C1.61929 9.5 0.5 10.6193 0.5 12C0.5 13.3807 1.61929 14.5 3 14.5C4.20948 14.5 5.21836 13.6411 5.44999 12.5H7C7.27614 12.5 7.5 12.2761 7.5 12C7.5 11.7239 7.27614 11.5 7 11.5H5.44999ZM6 17.5C5.17157 17.5 4.5 18.1716 4.5 19C4.5 19.8284 5.17157 20.5 6 20.5C6.82843 20.5 7.5 19.8284 7.5 19C7.5 18.1716 6.82843 17.5 6 17.5ZM3.5 19C3.5 17.6193 4.61929 16.5 6 16.5C6.50954 16.5 6.98348 16.6524 7.37869 16.9142L8.14645 16.1464C8.34171 15.9512 8.65829 15.9512 8.85355 16.1464C9.04882 16.3417 9.04882 16.6583 8.85355 16.8536L8.0858 17.6213C8.34756 18.0165 8.5 18.4905 8.5 19C8.5 20.3807 7.38071 21.5 6 21.5C4.61929 21.5 3.5 20.3807 3.5 19ZM16.5 19C16.5 18.1716 17.1716 17.5 18 17.5C18.8284 17.5 19.5 18.1716 19.5 19C19.5 19.8284 18.8284 20.5 18 20.5C17.1716 20.5 16.5 19.8284 16.5 19ZM15.9142 17.6213C15.6524 18.0165 15.5 18.4905 15.5 19C15.5 20.3807 16.6193 21.5 18 21.5C19.3807 21.5 20.5 20.3807 20.5 19C20.5 17.6193 19.3807 16.5 18 16.5C17.4905 16.5 17.0165 16.6524 16.6213 16.9142L15.8536 16.1464C15.6583 15.9512 15.3417 15.9512 15.1464 16.1464C14.9512 16.3417 14.9512 16.6583 15.1464 16.8536L15.9142 17.6213ZM21 10.5C20.1716 10.5 19.5 11.1716 19.5 12C19.5 12.8284 20.1716 13.5 21 13.5C21.8284 13.5 22.5 12.8284 22.5 12C22.5 11.1716 21.8284 10.5 21 10.5ZM21 14.5C19.7905 14.5 18.7816 13.6411 18.55 12.5H17C16.7239 12.5 16.5 12.2761 16.5 12C16.5 11.7239 16.7239 11.5 17 11.5H18.55C18.7816 10.3589 19.7905 9.5 21 9.5C22.3807 9.5 23.5 10.6193 23.5 12C23.5 13.3807 22.3807 14.5 21 14.5ZM16.5 5C16.5 4.17157 17.1716 3.5 18 3.5C18.8284 3.5 19.5 4.17157 19.5 5C19.5 5.82843 18.8284 6.5 18 6.5C17.1716 6.5 16.5 5.82843 16.5 5ZM18 2.5C16.6193 2.5 15.5 3.61929 15.5 5C15.5 5.50954 15.6524 5.98348 15.9142 6.3787L15.1464 7.14645C14.9512 7.34171 14.9512 7.65829 15.1464 7.85355C15.3417 8.04882 15.6583 8.04882 15.8536 7.85355L16.6213 7.0858C17.0165 7.34756 17.4905 7.5 18 7.5C19.3807 7.5 20.5 6.38071 20.5 5C20.5 3.61929 19.3807 2.5 18 2.5Z" fill="#17253D"/>
</svg>
