<svg width="45" height="56" viewBox="0 0 45 56" fill="none" xmlns="http://www.w3.org/2000/svg">
<path d="M43.5545 1.03555H10.8846C10.4964 1.03555 10.1976 0.764053 10.1976 1.72159V5.45311H6.2856C5.89738 5.45311 5.59881 5.78121 5.59881 6.13914V9.87066H1.68679C1.29857 9.87066 1 10.1689 1 10.5567V54.314C1 54.7017 1.29857 55 1.68679 55H34.3567C34.7449 55 35.0435 54.7017 35.0435 54.314V51.182H38.9555C39.3438 51.182 39.6722 50.8838 39.6722 50.496V47.3641H43.5842C43.9725 47.3641 44.2712 47.036 44.2712 46.6482V1.75142C44.2712 1.36366 43.9725 1.06538 43.5842 1.06538L43.5545 1.03555ZM2.34368 53.6279V11.3024H33.6102V53.6578H2.34368V53.6279ZM34.3268 9.87066H6.97257V6.85501H38.2389V49.81H35.0136V10.5865C35.0136 10.1988 34.6852 9.90049 34.3268 9.90049V9.87066ZM38.9257 5.45311H11.5714V2.43746H42.8377V45.992H39.6126V6.16897C39.6126 5.78121 39.3747 5.48293 38.8959 5.48293L38.9257 5.45311Z" fill="currentColor" stroke="currentColor" stroke-width="1.1"/>
<path d="M27.8763 21.9219H8.10713C7.71892 21.9219 7.42017 22.2202 7.42017 22.6079C7.42017 22.9957 7.71892 23.3238 8.10713 23.3238H27.8763C28.2645 23.3238 28.5631 23.0255 28.5631 22.6079C28.5631 22.1903 28.2645 21.9219 27.8763 21.9219Z" fill="currentColor" stroke="currentColor" stroke-width="1.1"/>
<path d="M27.8763 31.7656H8.10713C7.71892 31.7656 7.42017 32.0639 7.42017 32.4517C7.42017 32.8394 7.71892 33.1675 8.10713 33.1675H27.8763C28.2645 33.1675 28.5631 32.8394 28.5631 32.4517C28.5631 32.0639 28.2645 31.7656 27.8763 31.7656Z" fill="currentColor" stroke="currentColor" stroke-width="1.1"/>
<path d="M27.8763 41.6367H8.10713C7.71892 41.6367 7.42017 41.9648 7.42017 42.3228C7.42017 42.6807 7.71892 43.0088 8.10713 43.0088H27.8763C28.2645 43.0088 28.5631 42.7105 28.5631 42.3228C28.5631 41.935 28.2645 41.6367 27.8763 41.6367Z" fill="currentColor" stroke="currentColor" stroke-width="1.1"/>
</svg>
