<svg width="239" height="120" viewBox="0 0 239 120" fill="none" xmlns="http://www.w3.org/2000/svg">
<path d="M11.1532 85.9243L74.3437 85.9243C80.4701 85.9243 85.4969 80.9616 85.4969 74.9133C85.4969 68.8651 80.4701 63.9024 74.3437 63.9024L11.1532 63.9023C5.0268 63.9023 -8.67706e-07 68.865 -1.92522e-06 74.9133C-2.98274e-06 80.9616 5.0268 85.9243 11.1532 85.9243Z" fill="url(#paint0_linear_432_1681)"/>
<circle cx="31.6482" cy="74.9094" r="11.011" fill="#CDF200"/>
<path d="M43.5834 119.827L106.774 119.827C112.9 119.827 117.927 114.864 117.927 108.816C117.927 102.767 112.9 97.8047 106.774 97.8047L43.5834 97.8047C37.457 97.8047 32.4302 102.767 32.4302 108.816C32.4302 114.864 37.457 119.827 43.5834 119.827Z" fill="url(#paint1_linear_432_1681)"/>
<circle cx="86.1897" cy="108.816" r="11.011" fill="#CDF200"/>
<path d="M238.631 1.68289C238.596 1.57984 238.527 1.47793 238.494 1.37487C238.459 1.30617 238.459 1.23862 238.424 1.20427C238.39 1.16991 238.355 1.16991 238.32 1.13556C238.251 1.03251 238.148 0.964951 238.044 0.896247C237.94 0.827544 237.872 0.759989 237.768 0.725637C237.664 0.691285 237.596 0.656933 237.492 0.622584C237.388 0.588233 237.25 0.553882 237.146 0.553882C237.111 0.553882 237.077 0.519531 237.042 0.519531L98.9484 0.520676C98.9137 0.520676 98.8791 0.555027 98.8444 0.555027C98.7404 0.555027 98.6375 0.589378 98.4988 0.623729C98.3948 0.658081 98.292 0.692433 98.188 0.726782C98.084 0.761134 98.0158 0.829835 97.9464 0.897392C97.8424 0.966096 97.7396 1.03365 97.6702 1.1367C97.6356 1.17106 97.6009 1.17106 97.6009 1.20541C97.5662 1.27411 97.5662 1.30846 97.5316 1.37602C97.4622 1.47907 97.4276 1.58098 97.394 1.68404C97.3594 1.78709 97.3247 1.92335 97.3247 2.02641C97.3247 2.09511 97.29 2.16267 97.29 2.23137V80.8865C97.29 83.7251 99.6025 86.0163 102.467 86.0163H233.624C236.488 86.0163 238.801 83.7251 238.801 80.8865L238.802 2.22844C238.802 2.15974 238.767 2.09218 238.767 2.02348C238.664 1.92043 238.664 1.81852 238.63 1.6811L238.631 1.68289ZM231.831 3.93975L167.98 51.406L104.128 3.93975H231.831ZM235.283 80.886C235.283 81.8432 234.524 82.5955 233.558 82.5955L102.399 82.5966C101.433 82.5966 100.673 81.8444 100.673 80.8871V5.64983L166.942 54.8954C167.253 55.1347 167.598 55.2378 167.978 55.2378C168.358 55.2378 168.702 55.1347 169.013 54.8954L235.282 5.64983L235.283 80.886Z" fill="white"/>
<defs>
<linearGradient id="paint0_linear_432_1681" x1="85.8572" y1="74.5096" x2="-1.91975e-06" y2="74.5096" gradientUnits="userSpaceOnUse">
<stop stop-color="#B7C2EA" stop-opacity="0.4"/>
<stop offset="0.432292" stop-color="#B7C2EA"/>
<stop offset="0.609375" stop-color="#B7C2EA"/>
<stop offset="1" stop-color="#B7C2EA" stop-opacity="0.4"/>
</linearGradient>
<linearGradient id="paint1_linear_432_1681" x1="118.287" y1="108.412" x2="32.4302" y2="108.412" gradientUnits="userSpaceOnUse">
<stop stop-color="#B7C2EA" stop-opacity="0.4"/>
<stop offset="0.432292" stop-color="#B7C2EA"/>
<stop offset="0.609375" stop-color="#B7C2EA"/>
<stop offset="1" stop-color="#B7C2EA" stop-opacity="0.4"/>
</linearGradient>
</defs>
</svg>
