<svg width="66" height="46" viewBox="0 0 66 46" fill="none" xmlns="http://www.w3.org/2000/svg">
<path d="M64.172 30.5451H56.6848V24.4348C56.6848 23.2128 55.677 22.2064 54.4531 22.2064H33.7918V15.5928H46.8582C47.2901 15.5928 47.6502 15.2334 47.6502 14.7662V1.79075C47.6502 1.35943 47.2901 1 46.8582 1H19.1058C18.6739 1 18.2778 1.35943 18.2778 1.79075V14.7662C18.2778 15.1975 18.6379 15.5928 19.1058 15.5928H32.172V22.2064H11.5106C10.2868 22.2064 9.27891 23.2128 9.27891 24.4348V30.5451H1.79179C1.35985 30.5451 1 30.9045 1 31.3718V44.3472C1 44.7785 1.35985 45.1379 1.79179 45.1379H18.3859C18.8178 45.1379 19.1777 44.7785 19.1777 44.3472V31.3718C19.1777 30.9405 18.8178 30.5451 18.3859 30.5451H10.8987V24.4348C10.8987 24.0754 11.1866 23.8238 11.5106 23.8238H32.172V30.5451H24.6851C24.2531 30.5451 23.893 30.9045 23.893 31.3718V44.3472C23.893 44.7785 24.2531 45.1379 24.6851 45.1379H41.3149C41.7469 45.1379 42.1067 44.7785 42.1067 44.3472V31.3718C42.1067 30.9405 41.7469 30.5451 41.3149 30.5451H33.8278V23.8238H54.4892C54.8131 23.8238 55.1013 24.1113 55.1013 24.4348V30.5451H47.6141C47.1822 30.5451 46.7861 30.9045 46.7861 31.3718V44.3472C46.7861 44.7785 47.1462 45.1379 47.6141 45.1379H64.208C64.6399 45.1379 65 44.7785 65 44.3472V31.3718C65 30.9405 64.6399 30.5451 64.208 30.5451H64.172ZM48.3699 43.5205V32.1266H63.3441V43.5205H48.3699ZM46.0303 2.5815V13.9395H19.8616V2.5815H46.0303ZM25.4408 43.5205V32.1266H40.4511V43.5205H25.4408ZM2.54778 43.5205V32.1266H17.5578V43.5205H2.54778Z" fill="#030A40" stroke="#030A40" stroke-width="1.1"/>
</svg>
