<?xml version="1.0" encoding="utf-8"?>
<!-- Generator: Adobe Illustrator 27.7.0, SVG Export Plug-In . SVG Version: 6.00 Build 0)  -->
<svg version="1.1" id="Layer_1" xmlns="http://www.w3.org/2000/svg" xmlns:xlink="http://www.w3.org/1999/xlink" x="0px" y="0px"
	 viewBox="0 0 875 1097" style="enable-background:new 0 0 875 1097;" xml:space="preserve">
<style type="text/css">
	.st0{fill:url(#SVGID_1_);}
	.st1{fill:url(#SVGID_00000095324530133119395300000006698934516791425941_);}
	.st2{fill:url(#SVGID_00000129187618216926119730000006455882295538909582_);}
	.st3{fill:url(#SVGID_00000014636085360626009020000005321286164645336233_);}
	.st4{fill:url(#SVGID_00000027599441488643096420000006656564362250544775_);}
	.st5{fill:url(#SVGID_00000096742238342208339250000011156451106642668179_);}
	.st6{fill:url(#SVGID_00000096020133916442326200000015512952052614990732_);}
	.st7{fill:url(#SVGID_00000157284190350169390310000016484689329500454324_);}
	.st8{fill:url(#SVGID_00000091695055550142777770000017055273769245940890_);}
	.st9{fill:url(#SVGID_00000089565012866315754950000008822284183832191414_);}
	.st10{fill:url(#SVGID_00000047058462574786122270000003064021123089301644_);}
	.st11{fill:url(#SVGID_00000037668008306491174930000003005272548066985884_);}
	.st12{fill:url(#SVGID_00000108291774307292831950000017788460568363203509_);}
	.st13{fill:url(#SVGID_00000042735130331348300880000008433891897124906380_);}
	.st14{fill:url(#SVGID_00000079451859230976206800000009739154701039063736_);}
	.st15{fill:url(#SVGID_00000070835220094135944910000005914678423795486607_);}
	.st16{fill:url(#SVGID_00000108992364237419857500000005807350691028037008_);}
	.st17{fill:url(#SVGID_00000175291225302333071730000005704083383138718632_);}
	.st18{fill:url(#SVGID_00000147206693422713322040000004872997652757022337_);}
	.st19{fill:url(#SVGID_00000115505140533189940120000003317532633127999133_);}
	.st20{fill:url(#SVGID_00000088832572245519704830000007167962649403446974_);}
	.st21{fill:url(#SVGID_00000017513194456078219610000015178321375568570298_);}
	.st22{fill:url(#SVGID_00000175297912818891750950000013628023743008956592_);}
	.st23{fill:url(#SVGID_00000006699489062314101410000009655247401330142853_);}
	.st24{fill:url(#SVGID_00000141455514836878533190000009734355520560146876_);}
	.st25{fill:url(#SVGID_00000083062035316260555280000008069505147606068112_);}
	.st26{fill:url(#SVGID_00000068677514108556000020000002163538648196547208_);}
	.st27{fill:url(#SVGID_00000028284646962491287040000004774247122445001871_);}
	.st28{fill:url(#SVGID_00000144338651371539945950000008655021559432116617_);}
	.st29{fill:url(#SVGID_00000030445345758068179060000002742443219270720676_);}
	.st30{fill:url(#SVGID_00000117676116823012686990000013550986900281704350_);}
	.st31{fill:url(#SVGID_00000086687906438339390490000014415753755103275440_);}
	.st32{fill:url(#SVGID_00000052824473381764508670000012650037145381464729_);}
	.st33{fill:url(#SVGID_00000098202717819537233600000018084820938517401009_);}
	.st34{fill:url(#SVGID_00000158726221222837839280000011499713337087683246_);}
	.st35{fill:url(#SVGID_00000159453928924525326430000006114379350699561629_);}
	.st36{fill:url(#SVGID_00000122000330446773900120000003391278168617770654_);}
	.st37{fill:#CDF200;}
	.st38{fill:url(#SVGID_00000101092426451563628630000012109342017798344863_);}
	.st39{fill:url(#SVGID_00000165233032562347090000000003967045110682227120_);}
	.st40{fill:url(#SVGID_00000161612450194323578800000002508548502309998230_);}
	.st41{fill:url(#SVGID_00000021829041264353113990000002240340708497747639_);}
	.st42{fill:url(#SVGID_00000052809257489600709730000017419157401264789182_);}
	.st43{fill:url(#SVGID_00000127037949327789373780000007526255058913318022_);}
	.st44{fill:url(#SVGID_00000040537650798323373500000017637959747072431240_);}
	.st45{fill:url(#SVGID_00000085960773180739316090000010458028878513642402_);}
	.st46{fill:url(#SVGID_00000147911372094052306360000012041876713854774402_);}
	.st47{fill:url(#SVGID_00000091728327278745003930000018112310126290261123_);}
</style>
<g>
	<g>
		<g>
			<g>
				
					<linearGradient id="SVGID_1_" gradientUnits="userSpaceOnUse" x1="727.6234" y1="187.2813" x2="839.2884" y2="75.6194" gradientTransform="matrix(1 0 0 -1 -2.648153e-05 1098)">
					<stop  offset="0" style="stop-color:#B7C2EA;stop-opacity:0.4"/>
					<stop  offset="0.4479" style="stop-color:#B7C2EA"/>
					<stop  offset="0.6094" style="stop-color:#B7C2EA"/>
					<stop  offset="1" style="stop-color:#B7C2EA;stop-opacity:0.4"/>
				</linearGradient>
				<path class="st0" d="M839.3,1022.4c5.4-5.4,5.4-14.2-0.1-19.8l-91.9-91.9c-5.4-5.4-14.2-5.4-19.6,0c-5.4,5.4-5.4,14.2,0.1,19.8
					l92,91.8C824.9,1027.9,833.8,1027.9,839.3,1022.4z"/>
				
					<linearGradient id="SVGID_00000177483987163511553340000004183273974283105725_" gradientUnits="userSpaceOnUse" x1="571.4525" y1="171.2415" x2="669.436" y2="73.2599" gradientTransform="matrix(1 0 0 -1 -2.648153e-05 1098)">
					<stop  offset="0" style="stop-color:#B7C2EA;stop-opacity:0.4"/>
					<stop  offset="0.4479" style="stop-color:#B7C2EA"/>
					<stop  offset="0.6094" style="stop-color:#B7C2EA"/>
					<stop  offset="1" style="stop-color:#B7C2EA;stop-opacity:0.4"/>
				</linearGradient>
				<path style="fill:url(#SVGID_00000177483987163511553340000004183273974283105725_);" d="M669.4,1024.8c5.4-5.4,5.4-14.2,0-19.6
					l-78.2-78.5c-5.4-5.4-14.2-5.4-19.6,0s-5.4,14.2,0,19.6l78.2,78.5C655.1,1030.2,664,1030.2,669.4,1024.8z"/>
				
					<linearGradient id="SVGID_00000088849160484017369010000015663463781635790263_" gradientUnits="userSpaceOnUse" x1="738.552" y1="338.343" x2="836.535" y2="240.36" gradientTransform="matrix(1 0 0 -1 -2.648153e-05 1098)">
					<stop  offset="0" style="stop-color:#B7C2EA;stop-opacity:0.4"/>
					<stop  offset="0.4479" style="stop-color:#B7C2EA"/>
					<stop  offset="0.6094" style="stop-color:#B7C2EA"/>
					<stop  offset="1" style="stop-color:#B7C2EA;stop-opacity:0.4"/>
				</linearGradient>
				<path style="fill:url(#SVGID_00000088849160484017369010000015663463781635790263_);" d="M836.5,857.7c5.4-5.4,5.4-14.2,0-19.6
					l-78.2-78.5c-5.4-5.4-14.2-5.4-19.6,0c-5.4,5.4-5.4,14.2,0,19.6l78.2,78.5C822.2,863.1,831.1,863.1,836.5,857.7z"/>
				
					<linearGradient id="SVGID_00000183250755582603588550000001138533123851943818_" gradientUnits="userSpaceOnUse" x1="85.5108" y1="326.8511" x2="185.8431" y2="226.518" gradientTransform="matrix(1 0 0 -1 -2.648153e-05 1098)">
					<stop  offset="0" style="stop-color:#B7C2EA;stop-opacity:0.4"/>
					<stop  offset="0.4479" style="stop-color:#B7C2EA"/>
					<stop  offset="0.6094" style="stop-color:#B7C2EA"/>
					<stop  offset="1" style="stop-color:#B7C2EA;stop-opacity:0.4"/>
				</linearGradient>
				<path style="fill:url(#SVGID_00000183250755582603588550000001138533123851943818_);" d="M85.4,771.2
					c-5.4,5.4-5.4,14.2,0.1,19.8l80.7,80.4c5.4,5.4,14.2,5.4,19.6,0c5.4-5.4,5.4-14.2-0.1-19.8l-80.7-80.4
					C99.8,765.7,91,765.7,85.4,771.2z"/>
				
					<linearGradient id="SVGID_00000026133337134612698690000015407108394637674684_" gradientUnits="userSpaceOnUse" x1="272.5648" y1="256.5792" x2="160.9808" y2="144.9952" gradientTransform="matrix(1 0 0 -1 -2.648153e-05 1098)">
					<stop  offset="0" style="stop-color:#B7C2EA;stop-opacity:0.4"/>
					<stop  offset="0.4479" style="stop-color:#B7C2EA"/>
					<stop  offset="0.6094" style="stop-color:#B7C2EA"/>
					<stop  offset="1" style="stop-color:#B7C2EA;stop-opacity:0.4"/>
				</linearGradient>
				<path style="fill:url(#SVGID_00000026133337134612698690000015407108394637674684_);" d="M252.6,841.7l-91.8,91.8
					c-5.4,5.4-5.4,14.2,0,19.6c5.4,5.4,14.2,5.4,19.8-0.1l91.8-91.8c5.4-5.4,5.4-14.2,0-19.6C267,836.2,258.2,836.2,252.6,841.7z"/>
				
					<linearGradient id="SVGID_00000136373901972108634970000017282831173489589402_" gradientUnits="userSpaceOnUse" x1="249.3455" y1="162.6025" x2="347.3341" y2="64.6169" gradientTransform="matrix(1 0 0 -1 -2.648153e-05 1098)">
					<stop  offset="0" style="stop-color:#B7C2EA;stop-opacity:0.4"/>
					<stop  offset="0.4479" style="stop-color:#B7C2EA"/>
					<stop  offset="0.6094" style="stop-color:#B7C2EA"/>
					<stop  offset="1" style="stop-color:#B7C2EA;stop-opacity:0.4"/>
				</linearGradient>
				<path style="fill:url(#SVGID_00000136373901972108634970000017282831173489589402_);" d="M347.3,1013.8l-78.2-78.5
					c-5.4-5.4-14.2-5.4-19.6,0c-5.4,5.4-5.4,14.2,0,19.6l78.1,78.6c5.4,5.4,14.2,5.4,19.6,0C352.9,1028.1,352.8,1019.3,347.3,1013.8
					z"/>
				
					<linearGradient id="SVGID_00000075152656609401003030000001669490605444908470_" gradientUnits="userSpaceOnUse" x1="116.1613" y1="409.6017" x2="4.6828" y2="298.1227" gradientTransform="matrix(1 0 0 -1 -2.648153e-05 1098)">
					<stop  offset="0" style="stop-color:#B7C2EA;stop-opacity:0.4"/>
					<stop  offset="0.4479" style="stop-color:#B7C2EA"/>
					<stop  offset="0.6094" style="stop-color:#B7C2EA"/>
					<stop  offset="1" style="stop-color:#B7C2EA;stop-opacity:0.4"/>
				</linearGradient>
				<path style="fill:url(#SVGID_00000075152656609401003030000001669490605444908470_);" d="M24.3,800.1l92.1-92.4
					c5.4-5.4,5.4-14.2,0-19.6c-5.4-5.4-14.2-5.4-19.8,0.1L4.5,780.3c-5.4,5.4-5.4,14.2,0,19.6C9.9,805.3,18.9,805.5,24.3,800.1z"/>
				
					<linearGradient id="SVGID_00000127764794865282155460000001176501220360986269_" gradientUnits="userSpaceOnUse" x1="574.0862" y1="675.0173" x2="687.9622" y2="561.1412" gradientTransform="matrix(1 0 0 -1 -2.648153e-05 1098)">
					<stop  offset="0" style="stop-color:#B7C2EA;stop-opacity:0.4"/>
					<stop  offset="0.4479" style="stop-color:#B7C2EA"/>
					<stop  offset="0.6094" style="stop-color:#B7C2EA"/>
					<stop  offset="1" style="stop-color:#B7C2EA;stop-opacity:0.4"/>
				</linearGradient>
				<path style="fill:url(#SVGID_00000127764794865282155460000001176501220360986269_);" d="M573.9,423.1
					c-5.4,5.4-5.4,14.2,0.1,19.8l94.4,93.8c5.4,5.4,14.2,5.4,19.6,0c5.4-5.4,5.4-14.2-0.1-19.8l-94.4-93.8
					C588.3,417.6,579.5,417.6,573.9,423.1z"/>
				
					<linearGradient id="SVGID_00000085235508882581717670000016826822451581983629_" gradientUnits="userSpaceOnUse" x1="420.686" y1="828.142" x2="532.35" y2="716.478" gradientTransform="matrix(1 0 0 -1 -2.648153e-05 1098)">
					<stop  offset="0" style="stop-color:#B7C2EA;stop-opacity:0.4"/>
					<stop  offset="0.4479" style="stop-color:#B7C2EA"/>
					<stop  offset="0.6094" style="stop-color:#B7C2EA"/>
					<stop  offset="1" style="stop-color:#B7C2EA;stop-opacity:0.4"/>
				</linearGradient>
				<path style="fill:url(#SVGID_00000085235508882581717670000016826822451581983629_);" d="M532.5,381.4
					c5.4-5.4,5.4-14.2-0.1-19.8l-92-91.8c-5.4-5.4-14.2-5.4-19.6,0c-5.4,5.4-5.5,14.4-0.1,19.8l92,91.8
					C518.1,386.9,527,386.9,532.5,381.4z"/>
				
					<linearGradient id="SVGID_00000044895082987370448800000012563545135525989296_" gradientUnits="userSpaceOnUse" x1="253.724" y1="661.18" x2="365.389" y2="549.515" gradientTransform="matrix(1 0 0 -1 -2.648153e-05 1098)">
					<stop  offset="0" style="stop-color:#B7C2EA;stop-opacity:0.4"/>
					<stop  offset="0.4479" style="stop-color:#B7C2EA"/>
					<stop  offset="0.6094" style="stop-color:#B7C2EA"/>
					<stop  offset="1" style="stop-color:#B7C2EA;stop-opacity:0.4"/>
				</linearGradient>
				<path style="fill:url(#SVGID_00000044895082987370448800000012563545135525989296_);" d="M365.4,548.5
					c5.4-5.4,5.4-14.2-0.1-19.8l-91.9-91.9c-5.4-5.4-14.2-5.4-19.6,0c-5.4,5.4-5.4,14.2,0.1,19.8l92,91.8
					C351,554,359.9,554,365.4,548.5z"/>
				
					<linearGradient id="SVGID_00000142137855386144131330000001273625855244180630_" gradientUnits="userSpaceOnUse" x1="250.815" y1="491.882" x2="351.1475" y2="391.5485" gradientTransform="matrix(1 0 0 -1 -2.648153e-05 1098)">
					<stop  offset="0" style="stop-color:#B7C2EA;stop-opacity:0.4"/>
					<stop  offset="0.4479" style="stop-color:#B7C2EA"/>
					<stop  offset="0.6094" style="stop-color:#B7C2EA"/>
					<stop  offset="1" style="stop-color:#B7C2EA;stop-opacity:0.4"/>
				</linearGradient>
				<path style="fill:url(#SVGID_00000142137855386144131330000001273625855244180630_);" d="M250.7,606.2
					c-5.4,5.4-5.4,14.2,0.1,19.8l80.7,80.4c5.4,5.4,14.2,5.4,19.6,0c5.4-5.4,5.4-14.2-0.1-19.8l-80.7-80.4
					C265,600.8,256.1,600.8,250.7,606.2z"/>
				
					<linearGradient id="SVGID_00000031921597225638651080000006975024620344068494_" gradientUnits="userSpaceOnUse" x1="285.6663" y1="579.8007" x2="171.5962" y2="465.7308" gradientTransform="matrix(1 0 0 -1 -2.648153e-05 1098)">
					<stop  offset="0" style="stop-color:#B7C2EA;stop-opacity:0.4"/>
					<stop  offset="0.4479" style="stop-color:#B7C2EA"/>
					<stop  offset="0.6094" style="stop-color:#B7C2EA"/>
					<stop  offset="1" style="stop-color:#B7C2EA;stop-opacity:0.4"/>
				</linearGradient>
				<path style="fill:url(#SVGID_00000031921597225638651080000006975024620344068494_);" d="M191.2,632.3l94.5-94.5
					c5.4-5.4,5.4-14.2,0-19.6c-5.4-5.4-14.2-5.4-19.6,0l-94.5,94.5c-5.4,5.4-5.4,14.2,0,19.6C177,637.7,185.8,637.7,191.2,632.3z"/>
				
					<linearGradient id="SVGID_00000133488425589109463260000015240027793979992218_" gradientUnits="userSpaceOnUse" x1="97.5525" y1="645.1442" x2="195.5357" y2="547.1606" gradientTransform="matrix(1 0 0 -1 -2.648153e-05 1098)">
					<stop  offset="0" style="stop-color:#B7C2EA;stop-opacity:0.4"/>
					<stop  offset="0.4479" style="stop-color:#B7C2EA"/>
					<stop  offset="0.6094" style="stop-color:#B7C2EA"/>
					<stop  offset="1" style="stop-color:#B7C2EA;stop-opacity:0.4"/>
				</linearGradient>
				<path style="fill:url(#SVGID_00000133488425589109463260000015240027793979992218_);" d="M195.5,550.9c5.4-5.4,5.4-14.2,0-19.6
					l-78.2-78.5c-5.4-5.4-14.2-5.4-19.6,0c-5.4,5.4-5.4,14.2,0,19.6l78.2,78.5C181.2,556.3,190.1,556.3,195.5,550.9z"/>
				
					<linearGradient id="SVGID_00000165212837971553125140000012122948313186002087_" gradientUnits="userSpaceOnUse" x1="264.652" y1="812.241" x2="362.635" y2="714.258" gradientTransform="matrix(1 0 0 -1 -2.648153e-05 1098)">
					<stop  offset="0" style="stop-color:#B7C2EA;stop-opacity:0.4"/>
					<stop  offset="0.4479" style="stop-color:#B7C2EA"/>
					<stop  offset="0.6094" style="stop-color:#B7C2EA"/>
					<stop  offset="1" style="stop-color:#B7C2EA;stop-opacity:0.4"/>
				</linearGradient>
				<path style="fill:url(#SVGID_00000165212837971553125140000012122948313186002087_);" d="M362.6,383.8c5.4-5.4,5.4-14.2,0-19.6
					l-78.2-78.5c-5.4-5.4-14.2-5.4-19.6,0c-5.4,5.4-5.4,14.2,0,19.6l78.2,78.5C348.3,389.2,357.2,389.2,362.6,383.8z"/>
				
					<linearGradient id="SVGID_00000057857815160326467790000010468858246250534833_" gradientUnits="userSpaceOnUse" x1="764.4775" y1="423.5885" x2="652.9995" y2="312.1104" gradientTransform="matrix(1 0 0 -1 -2.648153e-05 1098)">
					<stop  offset="0" style="stop-color:#B7C2EA;stop-opacity:0.4"/>
					<stop  offset="0.4479" style="stop-color:#B7C2EA"/>
					<stop  offset="0.6094" style="stop-color:#B7C2EA"/>
					<stop  offset="1" style="stop-color:#B7C2EA;stop-opacity:0.4"/>
				</linearGradient>
				<path style="fill:url(#SVGID_00000057857815160326467790000010468858246250534833_);" d="M672.3,786.3l92.1-92.4
					c5.4-5.4,5.4-14.2,0-19.6c-5.4-5.4-14.2-5.4-19.6,0l-92.1,92.4c-5.4,5.4-5.4,14.2,0,19.6C658.1,791.7,666.8,791.9,672.3,786.3z"
					/>
				
					<linearGradient id="SVGID_00000023976072075729433420000008473257536696522127_" gradientUnits="userSpaceOnUse" x1="581.681" y1="494.382" x2="679.6639" y2="396.399" gradientTransform="matrix(1 0 0 -1 -2.648153e-05 1098)">
					<stop  offset="0" style="stop-color:#B7C2EA;stop-opacity:0.4"/>
					<stop  offset="0.4479" style="stop-color:#B7C2EA"/>
					<stop  offset="0.6094" style="stop-color:#B7C2EA"/>
					<stop  offset="1" style="stop-color:#B7C2EA;stop-opacity:0.4"/>
				</linearGradient>
				<path style="fill:url(#SVGID_00000023976072075729433420000008473257536696522127_);" d="M581.8,623.2l78.2,78.5
					c5.4,5.4,14.2,5.4,19.6,0c5.4-5.4,5.4-14.2,0-19.6l-78.2-78.5c-5.4-5.4-14.2-5.4-19.6,0S576.2,617.6,581.8,623.2z"/>
				
					<linearGradient id="SVGID_00000054241349526229638710000008367675529036358565_" gradientUnits="userSpaceOnUse" x1="603.8311" y1="587.432" x2="491.507" y2="475.109" gradientTransform="matrix(1 0 0 -1 -2.648153e-05 1098)">
					<stop  offset="0" style="stop-color:#B7C2EA;stop-opacity:0.4"/>
					<stop  offset="0.4479" style="stop-color:#B7C2EA"/>
					<stop  offset="0.6094" style="stop-color:#B7C2EA"/>
					<stop  offset="1" style="stop-color:#B7C2EA;stop-opacity:0.4"/>
				</linearGradient>
				<path style="fill:url(#SVGID_00000054241349526229638710000008367675529036358565_);" d="M491.7,622.9
					c5.4,5.4,14.2,5.4,19.8-0.1l92.1-92.4c5.4-5.4,5.4-14.2,0-19.6s-14.2-5.4-19.6,0l-92.1,92.4
					C486.3,608.6,486.3,617.5,491.7,622.9z"/>
				
					<linearGradient id="SVGID_00000150793938718231035270000014239928145095672728_" gradientUnits="userSpaceOnUse" x1="406.986" y1="507.92" x2="520.8625" y2="394.0435" gradientTransform="matrix(1 0 0 -1 -2.648153e-05 1098)">
					<stop  offset="0" style="stop-color:#B7C2EA;stop-opacity:0.4"/>
					<stop  offset="0.4479" style="stop-color:#B7C2EA"/>
					<stop  offset="0.6094" style="stop-color:#B7C2EA"/>
					<stop  offset="1" style="stop-color:#B7C2EA;stop-opacity:0.4"/>
				</linearGradient>
				<path style="fill:url(#SVGID_00000150793938718231035270000014239928145095672728_);" d="M406.8,590.2
					c-5.4,5.4-5.4,14.2,0.1,19.8l94.4,93.8c5.4,5.4,14.2,5.4,19.6,0c5.4-5.4,5.4-14.2-0.1-19.8l-94.4-93.8
					C421.2,584.7,412.4,584.7,406.8,590.2z"/>
				
					<linearGradient id="SVGID_00000109013380228152479530000011838025099706915478_" gradientUnits="userSpaceOnUse" x1="417.915" y1="658.98" x2="518.2469" y2="558.647" gradientTransform="matrix(1 0 0 -1 -2.648153e-05 1098)">
					<stop  offset="0" style="stop-color:#B7C2EA;stop-opacity:0.4"/>
					<stop  offset="0.4479" style="stop-color:#B7C2EA"/>
					<stop  offset="0.6094" style="stop-color:#B7C2EA"/>
					<stop  offset="1" style="stop-color:#B7C2EA;stop-opacity:0.4"/>
				</linearGradient>
				<path style="fill:url(#SVGID_00000109013380228152479530000011838025099706915478_);" d="M518.3,539.3
					c5.4-5.4,5.4-14.2-0.1-19.8l-80.7-80.4c-5.4-5.4-14.2-5.4-19.6,0c-5.4,5.4-5.4,14.2,0.1,19.8l80.7,80.4
					C504,544.8,512.8,544.8,518.3,539.3z"/>
				
					<linearGradient id="SVGID_00000154395664446463064250000015154577441684027832_" gradientUnits="userSpaceOnUse" x1="406.6902" y1="177.3262" x2="518.4932" y2="65.5283" gradientTransform="matrix(1 0 0 -1 -2.648153e-05 1098)">
					<stop  offset="0" style="stop-color:#B7C2EA;stop-opacity:0.4"/>
					<stop  offset="0.4479" style="stop-color:#B7C2EA"/>
					<stop  offset="0.6094" style="stop-color:#B7C2EA"/>
					<stop  offset="1" style="stop-color:#B7C2EA;stop-opacity:0.4"/>
				</linearGradient>
				<path style="fill:url(#SVGID_00000154395664446463064250000015154577441684027832_);" d="M518.5,1032.5c5.4-5.4,5.4-14.2,0-19.6
					l-92.2-92.2c-5.4-5.4-14.2-5.4-19.6,0c-5.4,5.4-5.4,14.2,0,19.6l92.2,92.2C504.3,1037.9,513.1,1037.9,518.5,1032.5z"/>
				
					<linearGradient id="SVGID_00000114754049216010760940000008604817665746401960_" gradientUnits="userSpaceOnUse" x1="447.8627" y1="743.5162" x2="335.5398" y2="631.1923" gradientTransform="matrix(1 0 0 -1 -2.648153e-05 1098)">
					<stop  offset="0" style="stop-color:#B7C2EA;stop-opacity:0.4"/>
					<stop  offset="0.4479" style="stop-color:#B7C2EA"/>
					<stop  offset="0.6094" style="stop-color:#B7C2EA"/>
					<stop  offset="1" style="stop-color:#B7C2EA;stop-opacity:0.4"/>
				</linearGradient>
				<path style="fill:url(#SVGID_00000114754049216010760940000008604817665746401960_);" d="M428,354.5l-92.1,92.4
					c-5.4,5.4-5.4,14.2,0,19.6c5.4,5.4,14.2,5.4,19.8-0.1l92.1-92.4c5.4-5.4,5.4-14.2,0-19.6C442.4,349,433.6,349,428,354.5z"/>
				
					<linearGradient id="SVGID_00000147216133087498154310000018358266264386455699_" gradientUnits="userSpaceOnUse" x1="737.7833" y1="510.3553" x2="849.4478" y2="398.6897" gradientTransform="matrix(1 0 0 -1 -2.648153e-05 1098)">
					<stop  offset="0" style="stop-color:#B7C2EA;stop-opacity:0.4"/>
					<stop  offset="0.4479" style="stop-color:#B7C2EA"/>
					<stop  offset="0.6094" style="stop-color:#B7C2EA"/>
					<stop  offset="1" style="stop-color:#B7C2EA;stop-opacity:0.4"/>
				</linearGradient>
				<path style="fill:url(#SVGID_00000147216133087498154310000018358266264386455699_);" d="M849.5,699.2
					c5.4-5.4,5.4-14.2-0.1-19.8l-92-91.8c-5.4-5.4-14.2-5.4-19.6,0c-5.4,5.4-5.4,14.2,0.1,19.8l92,91.8
					C835.2,704.8,844,704.8,849.5,699.2z"/>
				
					<linearGradient id="SVGID_00000140732239145811136020000017383409651646816656_" gradientUnits="userSpaceOnUse" x1="570.684" y1="343.257" x2="682.349" y2="231.592" gradientTransform="matrix(1 0 0 -1 -2.648153e-05 1098)">
					<stop  offset="0" style="stop-color:#B7C2EA;stop-opacity:0.4"/>
					<stop  offset="0.4479" style="stop-color:#B7C2EA"/>
					<stop  offset="0.6094" style="stop-color:#B7C2EA"/>
					<stop  offset="1" style="stop-color:#B7C2EA;stop-opacity:0.4"/>
				</linearGradient>
				<path style="fill:url(#SVGID_00000140732239145811136020000017383409651646816656_);" d="M682.4,866.3
					c5.4-5.4,5.4-14.2-0.1-19.8l-92-91.8c-5.4-5.4-14.2-5.4-19.6,0s-5.4,14.2,0.1,19.8l92,91.8C668.2,871.7,677,871.7,682.4,866.3z"
					/>
				
					<linearGradient id="SVGID_00000083052314243299809230000003661793236377036714_" gradientUnits="userSpaceOnUse" x1="243.064" y1="341.508" x2="356.94" y2="227.632" gradientTransform="matrix(1 0 0 -1 -2.648153e-05 1098)">
					<stop  offset="0" style="stop-color:#B7C2EA;stop-opacity:0.4"/>
					<stop  offset="0.4479" style="stop-color:#B7C2EA"/>
					<stop  offset="0.6094" style="stop-color:#B7C2EA"/>
					<stop  offset="1" style="stop-color:#B7C2EA;stop-opacity:0.4"/>
				</linearGradient>
				<path style="fill:url(#SVGID_00000083052314243299809230000003661793236377036714_);" d="M356.9,870.4c5.4-5.4,5.4-14.2,0-19.6
					l-94.3-94.3c-5.4-5.4-14.2-5.4-19.6,0s-5.4,14.2,0,19.6l94.3,94.3C342.7,875.7,351.6,875.8,356.9,870.4z"/>
				
					<linearGradient id="SVGID_00000044142290799303982380000008680971037580873369_" gradientUnits="userSpaceOnUse" x1="89.6644" y1="495.1855" x2="201.4677" y2="383.3827" gradientTransform="matrix(1 0 0 -1 -2.648153e-05 1098)">
					<stop  offset="0" style="stop-color:#B7C2EA;stop-opacity:0.4"/>
					<stop  offset="0.4479" style="stop-color:#B7C2EA"/>
					<stop  offset="0.6094" style="stop-color:#B7C2EA"/>
					<stop  offset="1" style="stop-color:#B7C2EA;stop-opacity:0.4"/>
				</linearGradient>
				<path style="fill:url(#SVGID_00000044142290799303982380000008680971037580873369_);" d="M89.7,602.8c-5.4,5.4-5.4,14.2,0,19.6
					l92.2,92.2c5.4,5.4,14.2,5.4,19.6,0c5.4-5.4,5.4-14.2,0-19.6l-92.2-92.2C104,597.3,95.2,597.3,89.7,602.8z"/>
				
					<linearGradient id="SVGID_00000019650151185897124280000002430823120003398066_" gradientUnits="userSpaceOnUse" x1="441.61" y1="425.349" x2="327.678" y2="311.4171" gradientTransform="matrix(1 0 0 -1 -2.648153e-05 1098)">
					<stop  offset="0" style="stop-color:#B7C2EA;stop-opacity:0.4"/>
					<stop  offset="0.4479" style="stop-color:#B7C2EA"/>
					<stop  offset="0.6094" style="stop-color:#B7C2EA"/>
					<stop  offset="1" style="stop-color:#B7C2EA;stop-opacity:0.4"/>
				</linearGradient>
				<path style="fill:url(#SVGID_00000019650151185897124280000002430823120003398066_);" d="M422.2,672.4l-94.3,94.3
					c-5.4,5.4-5.4,14.2,0,19.6c5.4,5.4,14.2,5.4,19.6,0l94.3-94.3c5.4-5.4,5.4-14.2,0-19.6C436.4,667,427.6,667,422.2,672.4z"/>
				
					<linearGradient id="SVGID_00000164504141673876601340000006840827212580184711_" gradientUnits="userSpaceOnUse" x1="603.1497" y1="262.1212" x2="489.0798" y2="148.0512" gradientTransform="matrix(1 0 0 -1 -2.648153e-05 1098)">
					<stop  offset="0" style="stop-color:#B7C2EA;stop-opacity:0.4"/>
					<stop  offset="0.4479" style="stop-color:#B7C2EA"/>
					<stop  offset="0.6094" style="stop-color:#B7C2EA"/>
					<stop  offset="1" style="stop-color:#B7C2EA;stop-opacity:0.4"/>
				</linearGradient>
				<path style="fill:url(#SVGID_00000164504141673876601340000006840827212580184711_);" d="M508.4,950.3l94.5-94.5
					c5.4-5.4,5.4-14.2,0-19.6c-5.4-5.4-14.2-5.4-19.6,0l-94.5,94.5c-5.4,5.4-5.4,14.2,0,19.6C494.2,955.7,503,955.7,508.4,950.3z"/>
				
					<linearGradient id="SVGID_00000025405407453984861920000007150202515531422650_" gradientUnits="userSpaceOnUse" x1="414.5813" y1="327.5623" x2="512.5679" y2="229.5756" gradientTransform="matrix(1 0 0 -1 -2.648153e-05 1098)">
					<stop  offset="0" style="stop-color:#B7C2EA;stop-opacity:0.4"/>
					<stop  offset="0.4479" style="stop-color:#B7C2EA"/>
					<stop  offset="0.6094" style="stop-color:#B7C2EA"/>
					<stop  offset="1" style="stop-color:#B7C2EA;stop-opacity:0.4"/>
				</linearGradient>
				<path style="fill:url(#SVGID_00000025405407453984861920000007150202515531422650_);" d="M512.5,848.9l-78.2-78.5
					c-5.4-5.4-14.2-5.4-19.6,0c-5.4,5.4-5.4,14.2,0,19.6l78.2,78.5c5.4,5.4,14.2,5.4,19.6,0C518,863.2,518,854.4,512.5,848.9z"/>
				
					<linearGradient id="SVGID_00000011738965285047481750000017295375327293335486_" gradientUnits="userSpaceOnUse" x1="614.4382" y1="907.8828" x2="502.9593" y2="796.4037" gradientTransform="matrix(1 0 0 -1 -2.648153e-05 1098)">
					<stop  offset="0" style="stop-color:#B7C2EA;stop-opacity:0.4"/>
					<stop  offset="0.4479" style="stop-color:#B7C2EA"/>
					<stop  offset="0.6094" style="stop-color:#B7C2EA"/>
					<stop  offset="1" style="stop-color:#B7C2EA;stop-opacity:0.4"/>
				</linearGradient>
				<path style="fill:url(#SVGID_00000011738965285047481750000017295375327293335486_);" d="M522.5,301.8l92.1-92.4
					c5.4-5.4,5.4-14.2,0-19.6c-5.4-5.4-14.2-5.4-19.8,0.1L502.7,282c-5.4,5.4-5.4,14.2,0,19.6C508.1,307,517.1,307.2,522.5,301.8z"
					/>
				
					<linearGradient id="SVGID_00000009568204999881086560000012865896249888984758_" gradientUnits="userSpaceOnUse" x1="430.5778" y1="978.4427" x2="528.5607" y2="880.4598" gradientTransform="matrix(1 0 0 -1 -2.648153e-05 1098)">
					<stop  offset="0" style="stop-color:#B7C2EA;stop-opacity:0.4"/>
					<stop  offset="0.4479" style="stop-color:#B7C2EA"/>
					<stop  offset="0.6094" style="stop-color:#B7C2EA"/>
					<stop  offset="1" style="stop-color:#B7C2EA;stop-opacity:0.4"/>
				</linearGradient>
				<path style="fill:url(#SVGID_00000009568204999881086560000012865896249888984758_);" d="M528.6,217.5c5.4-5.4,5.4-14.2,0-19.6
					l-78.2-78.5c-5.4-5.4-14.2-5.4-19.6,0c-5.4,5.4-5.4,14.2,0,19.6l77.9,78.5C514.2,223.1,523,223.1,528.6,217.5z"/>
				
					<linearGradient id="SVGID_00000026155091107896494830000014240387865001238965_" gradientUnits="userSpaceOnUse" x1="770.8416" y1="754.8565" x2="659.2571" y2="643.273" gradientTransform="matrix(1 0 0 -1 -2.648153e-05 1098)">
					<stop  offset="0" style="stop-color:#B7C2EA;stop-opacity:0.4"/>
					<stop  offset="0.4479" style="stop-color:#B7C2EA"/>
					<stop  offset="0.6094" style="stop-color:#B7C2EA"/>
					<stop  offset="1" style="stop-color:#B7C2EA;stop-opacity:0.4"/>
				</linearGradient>
				<path style="fill:url(#SVGID_00000026155091107896494830000014240387865001238965_);" d="M750.9,343.5l-91.8,91.8
					c-5.4,5.4-5.4,14.2,0,19.6c5.4,5.4,14.2,5.4,19.8-0.1l91.8-91.8c5.4-5.4,5.4-14.2,0-19.6C765.3,338,756.3,338.1,750.9,343.5z"/>
				
					<linearGradient id="SVGID_00000083067885530995158040000015202115804022639509_" gradientUnits="userSpaceOnUse" x1="747.538" y1="660.796" x2="845.5242" y2="562.8098" gradientTransform="matrix(1 0 0 -1 -2.648153e-05 1098)">
					<stop  offset="0" style="stop-color:#B7C2EA;stop-opacity:0.4"/>
					<stop  offset="0.4479" style="stop-color:#B7C2EA"/>
					<stop  offset="0.6094" style="stop-color:#B7C2EA"/>
					<stop  offset="1" style="stop-color:#B7C2EA;stop-opacity:0.4"/>
				</linearGradient>
				<path style="fill:url(#SVGID_00000083067885530995158040000015202115804022639509_);" d="M845.4,515.6l-78.2-78.5
					c-5.4-5.4-14.2-5.4-19.6,0c-5.4,5.4-5.4,14.2,0,19.6l78.2,78.5c5.4,5.4,14.2,5.4,19.6,0C851,530,851,521.2,845.4,515.6z"/>
				
					<linearGradient id="SVGID_00000174587656368894132930000016369814005347674761_" gradientUnits="userSpaceOnUse" x1="783.927" y1="1078.0624" x2="669.8572" y2="963.9927" gradientTransform="matrix(1 0 0 -1 -2.648153e-05 1098)">
					<stop  offset="0" style="stop-color:#B7C2EA;stop-opacity:0.4"/>
					<stop  offset="0.4479" style="stop-color:#B7C2EA"/>
					<stop  offset="0.6094" style="stop-color:#B7C2EA"/>
					<stop  offset="1" style="stop-color:#B7C2EA;stop-opacity:0.4"/>
				</linearGradient>
				<path style="fill:url(#SVGID_00000174587656368894132930000016369814005347674761_);" d="M689.5,134l94.5-94.5
					c5.4-5.4,5.4-14.2,0-19.6c-5.4-5.4-14.2-5.4-19.6,0l-94.5,94.5c-5.4,5.4-5.4,14.2,0,19.6C675.2,139.4,684,139.5,689.5,134z"/>
				
					<linearGradient id="SVGID_00000095310899742540660520000008394325439272332428_" gradientUnits="userSpaceOnUse" x1="748.9377" y1="990.0027" x2="849.2708" y2="889.6707" gradientTransform="matrix(1 0 0 -1 -2.648153e-05 1098)">
					<stop  offset="0" style="stop-color:#B7C2EA;stop-opacity:0.4"/>
					<stop  offset="0.4479" style="stop-color:#B7C2EA"/>
					<stop  offset="0.6094" style="stop-color:#B7C2EA"/>
					<stop  offset="1" style="stop-color:#B7C2EA;stop-opacity:0.4"/>
				</linearGradient>
				<path style="fill:url(#SVGID_00000095310899742540660520000008394325439272332428_);" d="M748.9,108.1
					c-5.4,5.4-5.4,14.2,0.1,19.8l80.7,80.4c5.4,5.4,14.2,5.4,19.6,0c5.4-5.4,5.4-14.2-0.1-19.8l-80.7-80.4
					C763.2,102.5,754.4,102.5,748.9,108.1z"/>
				
					<linearGradient id="SVGID_00000168798009587654730070000016136220868858442663_" gradientUnits="userSpaceOnUse" x1="583.7715" y1="825.1125" x2="684.104" y2="724.78" gradientTransform="matrix(1 0 0 -1 -2.648153e-05 1098)">
					<stop  offset="0" style="stop-color:#B7C2EA;stop-opacity:0.4"/>
					<stop  offset="0.4479" style="stop-color:#B7C2EA"/>
					<stop  offset="0.6094" style="stop-color:#B7C2EA"/>
					<stop  offset="1" style="stop-color:#B7C2EA;stop-opacity:0.4"/>
				</linearGradient>
				<path style="fill:url(#SVGID_00000168798009587654730070000016136220868858442663_);" d="M583.7,273c-5.4,5.4-5.4,14.2,0.1,19.8
					l80.7,80.4c5.4,5.4,14.2,5.4,19.6,0c5.4-5.4,5.4-14.2-0.1-19.8L603.3,273C597.9,267.6,589.1,267.6,583.7,273z"/>
				
					<linearGradient id="SVGID_00000115502449660368762750000010368193896840278184_" gradientUnits="userSpaceOnUse" x1="741.3234" y1="839.7674" x2="855.1994" y2="725.8914" gradientTransform="matrix(1 0 0 -1 -2.648153e-05 1098)">
					<stop  offset="0" style="stop-color:#B7C2EA;stop-opacity:0.4"/>
					<stop  offset="0.4479" style="stop-color:#B7C2EA"/>
					<stop  offset="0.6094" style="stop-color:#B7C2EA"/>
					<stop  offset="1" style="stop-color:#B7C2EA;stop-opacity:0.4"/>
				</linearGradient>
				<path style="fill:url(#SVGID_00000115502449660368762750000010368193896840278184_);" d="M855.2,372.1c5.4-5.4,5.4-14.2,0-19.6
					l-94.3-94.3c-5.4-5.4-14.2-5.4-19.6,0c-5.4,5.4-5.4,14.2,0,19.6l94.3,94.3C840.8,377.6,849.7,377.6,855.2,372.1z"/>
				
					<linearGradient id="SVGID_00000075154812713601614380000015125291634704939913_" gradientUnits="userSpaceOnUse" x1="587.9238" y1="993.4498" x2="699.7267" y2="881.6467" gradientTransform="matrix(1 0 0 -1 -2.648153e-05 1098)">
					<stop  offset="0" style="stop-color:#B7C2EA;stop-opacity:0.4"/>
					<stop  offset="0.4479" style="stop-color:#B7C2EA"/>
					<stop  offset="0.6094" style="stop-color:#B7C2EA"/>
					<stop  offset="1" style="stop-color:#B7C2EA;stop-opacity:0.4"/>
				</linearGradient>
				<path style="fill:url(#SVGID_00000075154812713601614380000015125291634704939913_);" d="M587.9,104.5c-5.4,5.4-5.4,14.2,0,19.6
					l92.2,92.2c5.4,5.4,14.2,5.4,19.6,0c5.4-5.4,5.4-14.2,0-19.6l-92.2-92.2C602.2,99.2,593.3,99.2,587.9,104.5z"/>
				<circle class="st37" cx="140" cy="825" r="14"/>
				<circle class="st37" cx="520" cy="594" r="14"/>
				<circle class="st37" cx="641" cy="996" r="14"/>
			</g>
		</g>
	</g>
</g>
<g>
	
		<linearGradient id="SVGID_00000008828234825076652430000014718086264034554273_" gradientUnits="userSpaceOnUse" x1="751.8781" y1="1159.3361" x2="863.5432" y2="1047.6713" gradientTransform="matrix(1 0 0 -1 -2.648153e-05 1098)">
		<stop  offset="0" style="stop-color:#B7C2EA;stop-opacity:0.4"/>
		<stop  offset="0.4479" style="stop-color:#B7C2EA"/>
		<stop  offset="0.6094" style="stop-color:#B7C2EA"/>
		<stop  offset="1" style="stop-color:#B7C2EA;stop-opacity:0.4"/>
	</linearGradient>
	<path style="fill:url(#SVGID_00000008828234825076652430000014718086264034554273_);" d="M844,50.2c5.3,5.5,14.1,5.5,19.5,0.1
		c5.4-5.4,5.4-14.2-0.1-19.8L832.8,0h-39.1L844,50.2z"/>
	<g>
		
			<linearGradient id="SVGID_00000104702361961261789360000006627987387746595998_" gradientUnits="userSpaceOnUse" x1="595.727" y1="1143.593" x2="693.8481" y2="1045.4716" gradientTransform="matrix(1 0 0 -1 -2.648153e-05 1098)">
			<stop  offset="0" style="stop-color:#B7C2EA;stop-opacity:0.4"/>
			<stop  offset="0.4479" style="stop-color:#B7C2EA"/>
			<stop  offset="0.6094" style="stop-color:#B7C2EA"/>
			<stop  offset="1" style="stop-color:#B7C2EA;stop-opacity:0.4"/>
		</linearGradient>
		<path style="fill:url(#SVGID_00000104702361961261789360000006627987387746595998_);" d="M674.1,52.4c5.3,5.8,14.2,5.7,19.6,0.3
			c5.4-5.4,5.4-14.2,0-19.6L660.9,0h-39L674.1,52.4z"/>
	</g>
</g>
<g>
	
		<linearGradient id="SVGID_00000116233637047733046650000012054551149440935593_" gradientUnits="userSpaceOnUse" x1="921.7828" y1="269.5961" x2="809.4589" y2="157.2731" gradientTransform="matrix(1 0 0 -1 -2.648153e-05 1098)">
		<stop  offset="0" style="stop-color:#B7C2EA;stop-opacity:0.4"/>
		<stop  offset="0.4479" style="stop-color:#B7C2EA"/>
		<stop  offset="0.6094" style="stop-color:#B7C2EA"/>
		<stop  offset="1" style="stop-color:#B7C2EA;stop-opacity:0.4"/>
	</linearGradient>
	<path style="fill:url(#SVGID_00000116233637047733046650000012054551149440935593_);" d="M809.8,920.8c-5.4,5.4-5.4,14.2,0,19.6
		c5.4,5.4,14.2,5.4,19.8-0.1l44.9-45.1v-39.3L809.8,920.8z"/>
	
		<linearGradient id="SVGID_00000119816768963332461120000013148218519367249588_" gradientUnits="userSpaceOnUse" x1="931.91" y1="590.41" x2="819.586" y2="478.086" gradientTransform="matrix(1 0 0 -1 -2.648153e-05 1098)">
		<stop  offset="0" style="stop-color:#B7C2EA;stop-opacity:0.4"/>
		<stop  offset="0.4479" style="stop-color:#B7C2EA"/>
		<stop  offset="0.6094" style="stop-color:#B7C2EA"/>
		<stop  offset="1" style="stop-color:#B7C2EA;stop-opacity:0.4"/>
	</linearGradient>
	<path style="fill:url(#SVGID_00000119816768963332461120000013148218519367249588_);" d="M819.9,600c-5.4,5.4-5.4,14.2,0,19.6
		c5.4,5.4,14.2,5.4,19.6,0l35-35.1v-39.3L819.9,600z"/>
	
		<linearGradient id="SVGID_00000049184024875201971230000004186964226195586960_" gradientUnits="userSpaceOnUse" x1="939.953" y1="923.694" x2="826.021" y2="809.762" gradientTransform="matrix(1 0 0 -1 -2.648153e-05 1098)">
		<stop  offset="0" style="stop-color:#B7C2EA;stop-opacity:0.4"/>
		<stop  offset="0.4479" style="stop-color:#B7C2EA"/>
		<stop  offset="0.6094" style="stop-color:#B7C2EA"/>
		<stop  offset="1" style="stop-color:#B7C2EA;stop-opacity:0.4"/>
	</linearGradient>
	<path style="fill:url(#SVGID_00000049184024875201971230000004186964226195586960_);" d="M826,268.6c-5.4,5.4-5.4,14.2,0,19.6
		c5.4,5.4,14.2,5.4,19.6,0l28.9-28.9v-39.2L826,268.6z"/>
</g>
<g>
	
		<linearGradient id="SVGID_00000009568934575723195370000012806057570943350166_" gradientUnits="userSpaceOnUse" x1="409.0735" y1="9.1386" x2="507.058" y2="-88.8419" gradientTransform="matrix(1 0 0 -1 -2.648153e-05 1098)">
		<stop  offset="0" style="stop-color:#B7C2EA;stop-opacity:0.4"/>
		<stop  offset="0.4479" style="stop-color:#B7C2EA"/>
		<stop  offset="0.6094" style="stop-color:#B7C2EA"/>
		<stop  offset="1" style="stop-color:#B7C2EA;stop-opacity:0.4"/>
	</linearGradient>
	<path style="fill:url(#SVGID_00000009568934575723195370000012806057570943350166_);" d="M426,1091.6c-5.4-5.4-14.2-5.4-19.6,0
		c-1.6,1.6-2.7,3.4-3.3,5.4h28.3L426,1091.6z"/>
	
		<linearGradient id="SVGID_00000092420114008922120800000002389873124401464967_" gradientUnits="userSpaceOnUse" x1="724.827" y1="18.0911" x2="825.1581" y2="-82.238" gradientTransform="matrix(1 0 0 -1 -2.648153e-05 1098)">
		<stop  offset="0" style="stop-color:#B7C2EA;stop-opacity:0.4"/>
		<stop  offset="0.4479" style="stop-color:#B7C2EA"/>
		<stop  offset="0.6094" style="stop-color:#B7C2EA"/>
		<stop  offset="1" style="stop-color:#B7C2EA;stop-opacity:0.4"/>
	</linearGradient>
	<path style="fill:url(#SVGID_00000092420114008922120800000002389873124401464967_);" d="M744.3,1080.1c-5.4-5.4-14.2-5.4-19.6,0
		c-4.5,4.5-5.2,11.5-2,16.9h38.6L744.3,1080.1z"/>
	
		<linearGradient id="SVGID_00000068664347978991573650000006919963352338702985_" gradientUnits="userSpaceOnUse" x1="759.5643" y1="105.8997" x2="645.4968" y2="-8.1708" gradientTransform="matrix(1 0 0 -1 -2.648153e-05 1098)">
		<stop  offset="0" style="stop-color:#B7C2EA;stop-opacity:0.4"/>
		<stop  offset="0.4479" style="stop-color:#B7C2EA"/>
		<stop  offset="0.6094" style="stop-color:#B7C2EA"/>
		<stop  offset="1" style="stop-color:#B7C2EA;stop-opacity:0.4"/>
	</linearGradient>
	<path style="fill:url(#SVGID_00000068664347978991573650000006919963352338702985_);" d="M759.6,1011.7c5.4-5.4,5.4-14.2,0-19.6
		c-5.4-5.4-14.2-5.4-19.6,0l-94.5,94.5c-2.9,2.9-4.2,6.7-4,10.4h32.8L759.6,1011.7z"/>
	
		<linearGradient id="SVGID_00000112609838615087693850000018138127667833852066_" gradientUnits="userSpaceOnUse" x1="563.5634" y1="21.2904" x2="675.3665" y2="-90.5196" gradientTransform="matrix(1 0 0 -1 -2.648153e-05 1098)">
		<stop  offset="0" style="stop-color:#B7C2EA;stop-opacity:0.4"/>
		<stop  offset="0.4479" style="stop-color:#B7C2EA"/>
		<stop  offset="0.6094" style="stop-color:#B7C2EA"/>
		<stop  offset="1" style="stop-color:#B7C2EA;stop-opacity:0.4"/>
	</linearGradient>
	<path style="fill:url(#SVGID_00000112609838615087693850000018138127667833852066_);" d="M583.2,1076.7c-5.3-5.5-14.1-5.5-19.6,0
		c-5.4,5.4-5.4,14.2,0,19.6l0.7,0.7h39.2L583.2,1076.7z"/>
	
		<linearGradient id="SVGID_00000071541576576339726430000007528200653554874502_" gradientUnits="userSpaceOnUse" x1="433.5777" y1="92.1663" x2="322.0987" y2="-19.3137" gradientTransform="matrix(1 0 0 -1 -2.648153e-05 1098)">
		<stop  offset="0" style="stop-color:#B7C2EA;stop-opacity:0.4"/>
		<stop  offset="0.4479" style="stop-color:#B7C2EA"/>
		<stop  offset="0.6094" style="stop-color:#B7C2EA"/>
		<stop  offset="1" style="stop-color:#B7C2EA;stop-opacity:0.4"/>
	</linearGradient>
	<path style="fill:url(#SVGID_00000071541576576339726430000007528200653554874502_);" d="M433.5,1025.4c5.4-5.4,5.4-14.2,0-19.6
		c-5.4-5.4-14.2-5.4-19.6,0l-91,91.2h39.2L433.5,1025.4z"/>
</g>
</svg>
