<svg width="55" height="55" viewBox="0 0 55 55" fill="none" xmlns="http://www.w3.org/2000/svg">
<path d="M7.91306 28.6522V17.1305C7.91306 14.5957 9.98697 12.5218 12.5218 12.5218H24.0435L21.7391 10.2174L24.0435 12.5218L21.7391 14.8261" stroke="currentColor" stroke-width="1.5" stroke-miterlimit="10" stroke-linecap="round" stroke-linejoin="round"/>
<path d="M47.0869 28.6522V40.174C47.0869 42.7087 45.013 44.7827 42.4782 44.7827H30.9565L33.2608 47.087L30.9565 44.7827L33.2608 42.4783" stroke="currentColor" stroke-width="1.5" stroke-miterlimit="10" stroke-linecap="round" stroke-linejoin="round"/>
<path d="M21.7391 49.3914H3.30435C1.92174 49.3914 1 48.4696 1 47.087V35.5653C1 34.1827 1.92174 33.2609 3.30435 33.2609H21.7391C23.1217 33.2609 24.0435 34.1827 24.0435 35.5653V47.087C24.0435 48.4696 23.1217 49.3914 21.7391 49.3914Z" stroke="currentColor" stroke-width="1.5" stroke-miterlimit="10" stroke-linecap="round" stroke-linejoin="round"/>
<path d="M1 44.7826H24.0435" stroke="currentColor" stroke-width="1.5" stroke-miterlimit="10" stroke-linecap="round" stroke-linejoin="round"/>
<path d="M12.5218 49.3913V54H17.1304H7.91306" stroke="currentColor" stroke-width="1.5" stroke-miterlimit="10" stroke-linecap="round" stroke-linejoin="round"/>
<path d="M51.6956 17.1304H33.2608C31.8782 17.1304 30.9565 16.2087 30.9565 14.8261V3.30435C30.9565 1.92174 31.8782 1 33.2608 1H51.6956C53.0782 1 54 1.92174 54 3.30435V14.8261C54 16.2087 53.0782 17.1304 51.6956 17.1304Z" stroke="currentColor" stroke-width="1.5" stroke-miterlimit="10" stroke-linecap="round" stroke-linejoin="round"/>
<path d="M30.9565 12.5217H54" stroke="currentColor" stroke-width="1.5" stroke-miterlimit="10" stroke-linecap="round" stroke-linejoin="round"/>
<path d="M42.4782 17.1304V21.7391H47.0869H37.8695" stroke="currentColor" stroke-width="1.5" stroke-miterlimit="10" stroke-linecap="round" stroke-linejoin="round"/>
</svg>
