<svg width="52" height="52" viewBox="0 0 52 52" fill="none" xmlns="http://www.w3.org/2000/svg">
<path d="M35.7826 46.6522C35.7826 49.0435 33.8261 51 31.4348 51H5.34783C2.95652 51 1 49.0435 1 46.6522V22.7391C1 20.3478 2.95652 18.3913 5.34783 18.3913H31.4348C33.8261 18.3913 35.7826 20.3478 35.7826 22.7391V46.6522Z" stroke="currentColor" stroke-width="1.5" stroke-miterlimit="10" stroke-linecap="round" stroke-linejoin="round"/>
<path d="M1 27.087H35.7826" stroke="currentColor" stroke-width="1.5" stroke-miterlimit="10" stroke-linecap="round" stroke-linejoin="round"/>
<path d="M5.68478 22.7391C5.68478 22.9252 5.53392 23.0761 5.34782 23.0761C5.16172 23.0761 5.01086 22.9252 5.01086 22.7391C5.01086 22.553 5.16172 22.4022 5.34782 22.4022C5.53392 22.4022 5.68478 22.553 5.68478 22.7391Z" fill="black" stroke="currentColor" stroke-width="1.5"/>
<path d="M10.0326 22.7391C10.0326 22.9252 9.88176 23.0761 9.69566 23.0761C9.50956 23.0761 9.3587 22.9252 9.3587 22.7391C9.3587 22.553 9.50956 22.4022 9.69566 22.4022C9.88176 22.4022 10.0326 22.553 10.0326 22.7391Z" fill="black" stroke="currentColor" stroke-width="1.5"/>
<path d="M14.3804 22.7391C14.3804 22.9252 14.2296 23.0761 14.0435 23.0761C13.8574 23.0761 13.7065 22.9252 13.7065 22.7391C13.7065 22.553 13.8574 22.4022 14.0435 22.4022C14.2296 22.4022 14.3804 22.553 14.3804 22.7391Z" fill="black" stroke="currentColor" stroke-width="1.5"/>
<path d="M16.2174 9.69565V5.34783C16.2174 2.95652 18.1739 1 20.5652 1H46.6522C49.0435 1 51 2.95652 51 5.34783V29.2609C51 31.6522 49.0435 33.6087 46.6522 33.6087H42.3043" stroke="currentColor" stroke-width="1.5" stroke-miterlimit="10" stroke-linecap="round" stroke-linejoin="round"/>
<path d="M16.2174 9.69568H51" stroke="currentColor" stroke-width="1.5" stroke-miterlimit="10" stroke-linecap="round" stroke-linejoin="round"/>
<path d="M20.9022 5.34782C20.9022 5.53392 20.7513 5.68478 20.5652 5.68478C20.3791 5.68478 20.2283 5.53392 20.2283 5.34782C20.2283 5.16172 20.3791 5.01086 20.5652 5.01086C20.7513 5.01086 20.9022 5.16172 20.9022 5.34782Z" fill="black" stroke="currentColor" stroke-width="1.5"/>
<path d="M25.25 5.34782C25.25 5.53392 25.0991 5.68478 24.913 5.68478C24.7269 5.68478 24.5761 5.53392 24.5761 5.34782C24.5761 5.16172 24.7269 5.01086 24.913 5.01086C25.0991 5.01086 25.25 5.16172 25.25 5.34782Z" fill="black" stroke="currentColor" stroke-width="1.5"/>
<path d="M29.5978 5.34782C29.5978 5.53392 29.447 5.68478 29.2609 5.68478C29.0748 5.68478 28.9239 5.53392 28.9239 5.34782C28.9239 5.16172 29.0748 5.01086 29.2609 5.01086C29.447 5.01086 29.5978 5.16172 29.5978 5.34782Z" fill="black" stroke="currentColor" stroke-width="1.5"/>
<path d="M7.52173 18.3913V14.0435C7.52173 11.6522 9.47825 9.69568 11.8696 9.69568H37.9565C40.3478 9.69568 42.3043 11.6522 42.3043 14.0435V37.9565C42.3043 40.3479 40.3478 42.3044 37.9565 42.3044H35.7826" stroke="currentColor" stroke-width="1.5" stroke-miterlimit="10" stroke-linecap="round" stroke-linejoin="round"/>
<path d="M7.52173 18.3913H42.3043" stroke="currentColor" stroke-width="1.5" stroke-miterlimit="10" stroke-linecap="round" stroke-linejoin="round"/>
<path d="M12.2065 14.0435C12.2065 14.2296 12.0557 14.3805 11.8696 14.3805C11.6835 14.3805 11.5326 14.2296 11.5326 14.0435C11.5326 13.8574 11.6835 13.7065 11.8696 13.7065C12.0557 13.7065 12.2065 13.8574 12.2065 14.0435Z" fill="black" stroke="currentColor" stroke-width="1.5"/>
<path d="M16.5543 14.0435C16.5543 14.2296 16.4035 14.3805 16.2174 14.3805C16.0313 14.3805 15.8804 14.2296 15.8804 14.0435C15.8804 13.8574 16.0313 13.7065 16.2174 13.7065C16.4035 13.7065 16.5543 13.8574 16.5543 14.0435Z" fill="black" stroke="currentColor" stroke-width="1.5"/>
<path d="M20.9022 14.0435C20.9022 14.2296 20.7513 14.3805 20.5652 14.3805C20.3791 14.3805 20.2283 14.2296 20.2283 14.0435C20.2283 13.8574 20.3791 13.7065 20.5652 13.7065C20.7513 13.7065 20.9022 13.8574 20.9022 14.0435Z" fill="black" stroke="currentColor" stroke-width="1.5"/>
</svg>
