<svg width="52" height="63" viewBox="0 0 52 63" fill="none" xmlns="http://www.w3.org/2000/svg">
<path d="M26 22.0526C39.8071 22.0526 51 17.3398 51 11.5263C51 5.71279 39.8071 1 26 1C12.1929 1 1 5.71279 1 11.5263C1 17.3398 12.1929 22.0526 26 22.0526Z" stroke="currentColor" stroke-width="1.5" stroke-miterlimit="10" stroke-linecap="round" stroke-linejoin="round"/>
<path d="M51 24.6842C51 30.4737 39.6842 35.2105 26 35.2105C12.3158 35.2105 1 30.4737 1 24.6842" stroke="currentColor" stroke-width="1.5" stroke-miterlimit="10" stroke-linecap="round" stroke-linejoin="round"/>
<path d="M51 37.8421C51 43.6316 39.6842 48.3684 26 48.3684C12.3158 48.3684 1 43.6316 1 37.8421" stroke="currentColor" stroke-width="1.5" stroke-miterlimit="10" stroke-linecap="round" stroke-linejoin="round"/>
<path d="M51 11.5263V51C51 56.7895 39.6842 61.5263 26 61.5263C12.3158 61.5263 1 56.7895 1 51V11.5263" stroke="currentColor" stroke-width="1.5" stroke-miterlimit="10" stroke-linecap="round" stroke-linejoin="round"/>
</svg>
