<svg width="53" height="56" viewBox="0 0 53 56" fill="none" xmlns="http://www.w3.org/2000/svg">
<path d="M43.5 47.1429C48.1944 47.1429 52 36.8134 52 24.0714C52 11.3294 48.1944 1 43.5 1C38.8056 1 35 11.3294 35 24.0714C35 36.8134 38.8056 47.1429 43.5 47.1429Z" stroke="currentColor" stroke-width="1.5" stroke-miterlimit="10" stroke-linecap="round" stroke-linejoin="round"/>
<path d="M42.2857 18C44.9571 18 47.1428 20.6714 47.1428 24.0714C47.1428 27.4714 44.9571 30.1429 42.2857 30.1429" stroke="currentColor" stroke-width="1.5" stroke-miterlimit="10" stroke-linecap="round" stroke-linejoin="round"/>
<path d="M39.3714 3.91431L22.8571 15.5714H9.5C4.88571 15.5714 1 19.4571 1 24.0714C1 28.6857 4.88571 32.5714 9.5 32.5714H22.8571L39.3714 44.2287C36.7 40.343 35 32.8143 35 24.0714C35 15.3286 36.7 7.80002 39.3714 3.91431Z" stroke="currentColor" stroke-width="1.5" stroke-miterlimit="10" stroke-linecap="round" stroke-linejoin="round"/>
<path d="M8.28571 32.5714L13.1428 37.4286V46.9001C13.1428 48.6001 13.8714 50.0571 15.3285 51.0285L20.4286 54.4286L21.4 53.4571C22.3714 52.4857 22.8571 51.2713 22.8571 50.057V49.3286C22.8571 48.1144 22.3714 46.9 21.4 45.9286C20.6714 45.2 20.4286 44.4714 20.6714 43.5L22.8571 32.8142C18.2428 32.8142 15.5714 28.9285 15.5714 24.3142C15.5714 19.7 18.2428 15.8142 22.8571 15.8142" stroke="currentColor" stroke-width="1.5" stroke-miterlimit="10" stroke-linecap="round" stroke-linejoin="round"/>
</svg>
