<svg width="129" height="19" viewBox="0 0 129 19" fill="none" xmlns="http://www.w3.org/2000/svg">
<path d="M9.03347 1.05859H13.5394V11.2988C13.5394 13.0394 13.2521 14.349 12.6583 15.254C11.49 17.0401 9.51231 18.1032 6.84274 18.1032C5.3631 18.1032 4.10133 17.8326 3.0766 17.2676C1.00079 16.1136 0 14.5525 0 11.3203V1.05859H4.50596V11.2533C4.50596 13.3339 5.19789 14.349 6.79485 14.349C8.39181 14.349 9.03586 13.626 9.03586 11.2748V1.05859H9.03347Z" fill="white"/>
<path d="M24.8117 17.783V10.8205C24.8117 9.12541 24.1916 8.33531 22.7383 8.33531C21.1413 8.33531 20.4733 9.1709 20.4733 10.866V17.783H16.5156V5.23716H20.2099V6.57075H20.2578C21.091 5.28265 22.2594 4.80859 23.8564 4.80859C26.241 4.80859 28.7669 6.07515 28.7669 9.78143V17.783H24.8093H24.8117Z" fill="white"/>
<path d="M35.2799 5.23828H31.3223V17.7841H35.2799V5.23828Z" fill="white"/>
<path d="M96.4577 5.23828H92.5V17.7841H96.4577V5.23828Z" fill="white"/>
<path d="M45.9029 17.7868V8.09011H42.4935V17.7868H38.5358V8.09011H37.0586V5.24096H38.5358V4.63043C38.5358 2.12127 39.9437 0.742188 43.6619 0.742188H44.1862V3.56978H43.9013C42.9005 3.56978 42.4935 4.0223 42.4935 4.83634V5.24336H49.8582V17.7892H45.9005L45.9029 17.7868Z" fill="white"/>
<path d="M55.9117 12.6545C56.1272 14.0791 57.389 15.0272 59.0099 15.0272C60.0825 15.0272 60.7744 14.6417 61.4185 13.8516H65.4696C64.2054 16.5883 61.7992 18.1924 59.0099 18.1924C55.1959 18.1924 52.002 15.2762 52.002 11.546C52.002 7.81576 55.0522 4.80859 58.9381 4.80859C62.8239 4.80859 65.9221 7.77027 65.9221 11.6585C65.9221 12.02 65.8981 12.3145 65.8263 12.6521H55.9094L55.9117 12.6545ZM61.9668 10.1238C61.6555 8.83571 60.4656 7.97617 58.9405 7.97617C57.5111 7.97617 56.2709 8.79021 55.962 10.1238H61.9692H61.9668Z" fill="white"/>
<path d="M78.127 17.7848V16.4296H78.0791C77.3393 17.5812 76.0057 18.1918 74.1214 18.1918C70.1158 18.1918 67.4941 15.2756 67.4941 11.4783C67.4941 7.68106 70.1877 4.81037 74.0496 4.81037C75.5747 4.81037 76.8149 5.23894 77.9354 6.30198V1.05859H81.8931V17.7848H78.127ZM78.1509 11.4544C78.1509 9.71377 76.7455 8.31314 74.7894 8.31314C72.8333 8.31314 71.4518 9.62519 71.4518 11.4544C71.4518 13.2836 72.8572 14.6866 74.7654 14.6866C76.6737 14.6866 78.1509 13.3075 78.1509 11.4544Z" fill="white"/>
<path d="M99.7422 17.7848V1.05859H105.749C107.942 1.05859 109.683 1.42012 110.923 2.07615C113.425 3.43129 114.998 6.00988 114.998 9.42167C114.998 14.938 111.565 17.7848 106.061 17.7848H99.7446H99.7422ZM106.274 14.033C108.871 14.033 110.492 12.4959 110.492 9.44322C110.492 6.39057 108.895 4.80797 106.298 4.80797H104.248V14.033H106.274Z" fill="white"/>
<path d="M96.6557 2.25524C96.6557 3.3949 95.6813 4.31908 94.4793 4.31908C93.2774 4.31908 92.303 3.3949 92.303 2.25524C92.303 1.11558 93.275 0.191406 94.4793 0.191406C95.6836 0.191406 96.6557 1.11558 96.6557 2.25524Z" fill="white"/>
<path d="M48.1842 4.32147C46.9823 4.32147 46.0078 3.39729 46.0078 2.25764C46.0078 1.11798 46.9823 0.191406 48.1842 0.191406C49.3861 0.191406 50.3605 1.11558 50.3605 2.25764C50.3605 3.39969 49.3861 4.32147 48.1842 4.32147Z" fill="white"/>
<path d="M35.478 2.25524C35.478 3.3949 34.5035 4.31908 33.3016 4.31908C32.0997 4.31908 31.1252 3.3949 31.1252 2.25524C31.1252 1.11558 32.0973 0.191406 33.2992 0.191406C34.5011 0.191406 35.4756 1.11558 35.4756 2.25524" fill="white"/>
<path d="M117.042 17.5572V16.3792C117.811 15.9051 118.369 15.5053 118.716 15.1677C119.427 14.4854 119.815 13.8772 119.815 13.4199C119.815 13.0752 119.571 12.8429 119.223 12.8429C118.783 12.8429 118.539 13.1398 118.505 13.7815H116.982C116.982 12.3952 117.887 11.5117 119.281 11.5117C120.557 11.5117 121.412 12.297 121.412 13.2356C121.412 14.1741 120.863 15.0384 119.334 16.281H121.455V17.5548H117.042V17.5572Z" fill="white"/>
<path d="M127.288 13.7001C127.288 13.1781 127.061 12.8429 126.553 12.8429C126.079 12.8429 125.818 13.1949 125.818 13.7001V15.479C125.818 15.9913 126.079 16.3361 126.553 16.3361C127.061 16.3361 127.288 15.9985 127.288 15.479V13.7001ZM128.885 15.4478C128.885 16.8197 127.82 17.6697 126.577 17.6697C125.334 17.6697 124.219 16.8126 124.219 15.4478V13.7072C124.219 12.297 125.394 11.5117 126.56 11.5117C127.82 11.5117 128.885 12.3784 128.885 13.6929V15.4478Z" fill="white"/>
<path d="M123.917 16.9024C123.917 17.3525 123.531 17.7188 123.055 17.7188C122.578 17.7188 122.195 17.3525 122.195 16.9024C122.195 16.4523 122.581 16.0859 123.055 16.0859C123.529 16.0859 123.917 16.4499 123.917 16.9024Z" fill="white"/>
</svg>
