<svg width="24" height="24" viewBox="0 0 24 24" fill="none" xmlns="http://www.w3.org/2000/svg">
<path fill-rule="evenodd" clip-rule="evenodd" d="M6 12C6 13.6569 4.65685 15 3 15C1.34315 15 0 13.6569 0 12C0 10.3431 1.34315 9 3 9C4.65685 9 6 10.3431 6 12ZM15 12C15 13.6569 13.6569 15 12 15C10.3431 15 9 13.6569 9 12C9 10.3431 10.3431 9 12 9C13.6569 9 15 10.3431 15 12ZM21 15C22.6569 15 24 13.6569 24 12C24 10.3431 22.6569 9 21 9C19.3431 9 18 10.3431 18 12C18 13.6569 19.3431 15 21 15Z" fill="#97DAFF"/>
<path fill-rule="evenodd" clip-rule="evenodd" d="M3 14C4.10457 14 5 13.1046 5 12C5 10.8954 4.10457 10 3 10C1.89543 10 1 10.8954 1 12C1 13.1046 1.89543 14 3 14ZM3 15C4.65685 15 6 13.6569 6 12C6 10.3431 4.65685 9 3 9C1.34315 9 0 10.3431 0 12C0 13.6569 1.34315 15 3 15ZM12 14C13.1046 14 14 13.1046 14 12C14 10.8954 13.1046 10 12 10C10.8954 10 10 10.8954 10 12C10 13.1046 10.8954 14 12 14ZM12 15C13.6569 15 15 13.6569 15 12C15 10.3431 13.6569 9 12 9C10.3431 9 9 10.3431 9 12C9 13.6569 10.3431 15 12 15ZM23 12C23 13.1046 22.1046 14 21 14C19.8954 14 19 13.1046 19 12C19 10.8954 19.8954 10 21 10C22.1046 10 23 10.8954 23 12ZM24 12C24 13.6569 22.6569 15 21 15C19.3431 15 18 13.6569 18 12C18 10.3431 19.3431 9 21 9C22.6569 9 24 10.3431 24 12Z" fill="#004580"/>
</svg>
