<svg width="16" height="16" viewBox="0 0 16 16" fill="none" xmlns="http://www.w3.org/2000/svg">
<path fill-rule="evenodd" clip-rule="evenodd" d="M4 8C4 9.10457 3.10457 10 2 10C0.89543 10 0 9.10457 0 8C0 6.89543 0.89543 6 2 6C3.10457 6 4 6.89543 4 8ZM10 8C10 9.10457 9.10457 10 8 10C6.89543 10 6 9.10457 6 8C6 6.89543 6.89543 6 8 6C9.10457 6 10 6.89543 10 8ZM14 10C15.1046 10 16 9.10457 16 8C16 6.89543 15.1046 6 14 6C12.8954 6 12 6.89543 12 8C12 9.10457 12.8954 10 14 10Z" fill="#97DAFF"/>
<path fill-rule="evenodd" clip-rule="evenodd" d="M2 9.25C2.69036 9.25 3.25 8.69036 3.25 8C3.25 7.30964 2.69036 6.75 2 6.75C1.30964 6.75 0.75 7.30964 0.75 8C0.75 8.69036 1.30964 9.25 2 9.25ZM2 10C3.10457 10 4 9.10457 4 8C4 6.89543 3.10457 6 2 6C0.895431 6 0 6.89543 0 8C0 9.10457 0.895431 10 2 10ZM8 9.25C8.69036 9.25 9.25 8.69036 9.25 8C9.25 7.30964 8.69036 6.75 8 6.75C7.30964 6.75 6.75 7.30964 6.75 8C6.75 8.69036 7.30964 9.25 8 9.25ZM8 10C9.10457 10 10 9.10457 10 8C10 6.89543 9.10457 6 8 6C6.89543 6 6 6.89543 6 8C6 9.10457 6.89543 10 8 10ZM15.25 8C15.25 8.69036 14.6904 9.25 14 9.25C13.3096 9.25 12.75 8.69036 12.75 8C12.75 7.30964 13.3096 6.75 14 6.75C14.6904 6.75 15.25 7.30964 15.25 8ZM16 8C16 9.10457 15.1046 10 14 10C12.8954 10 12 9.10457 12 8C12 6.89543 12.8954 6 14 6C15.1046 6 16 6.89543 16 8Z" fill="#004580"/>
</svg>
