<svg width="173" height="128" viewBox="0 0 173 128" fill="none" xmlns="http://www.w3.org/2000/svg">
<path d="M47.0438 42.4516C54.5419 42.4516 60.7579 48.6676 60.7579 56.1658C60.7579 63.8871 54.5386 70.0997 47.0438 70.0997C39.3258 70.0997 33.1098 63.8837 33.1098 56.1658C33.1098 48.671 39.3225 42.4516 47.0438 42.4516ZM47.0438 46.1794C41.3798 46.1794 36.8376 50.7114 36.8376 56.1658C36.8376 61.8346 41.3744 66.3719 47.0438 66.3719C52.4983 66.3719 57.0301 61.8303 57.0301 56.1658C57.0301 50.7161 52.4933 46.1794 47.0438 46.1794Z" fill="white" stroke="#7085D4" stroke-width="0.661037"/>
<path d="M70.4268 98.5663L70.4263 98.562C69.0906 86.6882 59.0716 77.4984 47.0426 77.4984C34.796 77.4984 24.7752 86.6854 23.4394 98.562L23.4393 98.562L23.4389 98.5662C23.396 98.9974 23.1531 99.3281 22.7837 99.5575C22.4081 99.7908 21.9113 99.9104 21.4156 99.898C20.9186 99.8854 20.4593 99.7413 20.1455 99.4903C19.8454 99.2503 19.6619 98.9021 19.7056 98.4104C21.2262 84.4363 32.9431 73.7407 47.0423 73.7407H47.0429C61.1444 73.7407 72.8584 84.4376 74.1599 98.4082C74.2043 98.9011 74.0206 99.2499 73.7201 99.4903C73.4063 99.7413 72.9469 99.8854 72.4498 99.898C71.9541 99.9104 71.4574 99.7908 71.0818 99.5575C70.7124 99.3281 70.4696 98.9975 70.4268 98.5663Z" fill="white" stroke="#7085D4" stroke-width="0.661037"/>
<path d="M47.0442 24.5727C72.7244 24.5727 93.5367 45.3829 93.5367 71.2864C93.5367 96.9676 72.7255 117.779 47.0442 117.779C21.1391 117.779 0.330518 96.9666 0.330518 71.2864C0.330518 45.3823 21.1417 24.5727 47.0442 24.5727ZM47.0442 28.3707C23.2273 28.3707 4.12817 47.4698 4.12817 71.2868C4.12817 94.8819 23.2284 113.98 47.0442 113.98C70.6383 113.98 89.7373 94.8808 89.7373 71.2868C89.7373 47.4709 70.6394 28.3707 47.0442 28.3707Z" fill="white" stroke="#7085D4" stroke-width="0.661037"/>
<rect x="65.5806" y="83.6875" width="34.9326" height="28.3237" transform="rotate(10.7672 65.5806 83.6875)" fill="#7085D4"/>
<rect x="79.0269" y="63.8008" width="27.8586" height="39.6245" transform="rotate(18.0196 79.0269 63.8008)" fill="#7085D4"/>
<rect x="58.0986" y="116.336" width="27.8586" height="43.3356" transform="rotate(-75.0586 58.0986 116.336)" fill="#7085D4"/>
<path d="M84.5345 101.037C83.7491 100.889 82.9411 101.056 82.3036 101.497C81.6665 101.938 81.2575 102.615 81.1746 103.364C81.0918 104.114 81.3427 104.869 81.8669 105.449L81.3496 108.169C81.2749 108.749 81.5212 109.331 82.001 109.71C82.4813 110.088 83.128 110.211 83.7134 110.035C84.2992 109.859 84.7415 109.408 84.8848 108.841L85.4021 106.121C86.1034 105.774 86.6141 105.163 86.8119 104.434C87.0093 103.706 86.8764 102.926 86.4445 102.282C86.0123 101.637 85.3206 101.186 84.5345 101.037Z" fill="white"/>
<path d="M101.908 94.2541L98.9587 93.6932L100.257 86.8664C101.129 82.2811 99.4417 77.57 95.8316 74.5079C92.2211 71.4457 87.236 70.4977 82.7537 72.0209C78.2716 73.5441 74.9729 77.307 74.1009 81.8924L72.8027 88.7192L69.8532 88.1583C69.3074 88.0545 68.7428 88.1678 68.285 88.4735C67.8266 88.7791 67.5119 89.2517 67.41 89.7877L62.674 114.692C62.5721 115.228 62.6914 115.783 63.0055 116.236C63.3194 116.688 63.8029 117 64.3487 117.104L96.4035 123.2C96.9493 123.304 97.5139 123.19 97.9717 122.885C98.43 122.579 98.7447 122.107 98.8467 121.571L103.583 96.6665C103.685 96.1305 103.565 95.5753 103.251 95.1229C102.937 94.6704 102.454 94.3579 101.908 94.2541ZM76.8836 82.4216C77.5701 78.8119 80.1666 75.8498 83.6954 74.6506C87.2241 73.4514 91.1487 74.1977 93.9908 76.6084C96.833 79.0192 98.161 82.7276 97.4746 86.3373L96.1764 93.1641L75.5856 89.2484L76.8836 82.4216ZM96.1995 120.331L65.5917 114.511L70.0576 91.0266L100.665 96.8472L96.1995 120.331Z" fill="white"/>
<path d="M139.588 112.106L139.588 45.7599C139.588 39.3275 134.377 34.0497 128.027 34.0497C121.676 34.0497 116.466 39.3275 116.466 45.7599L116.466 112.106C116.466 118.539 121.676 123.816 128.027 123.816C134.377 123.816 139.588 118.539 139.588 112.106Z" fill="url(#paint0_linear_439_16743)"/>
<circle cx="128.02" cy="90.5915" r="11.5609" transform="rotate(-90 128.02 90.5915)" fill="#CDF200"/>
<path d="M172.089 78.0554L172.089 11.7091C172.089 5.27675 166.878 -0.00110391 160.528 -0.00110475C154.177 -0.00110558 148.967 5.27675 148.967 11.7091L148.967 78.0554C148.967 84.4878 154.177 89.7656 160.528 89.7656C166.878 89.7656 172.089 84.4878 172.089 78.0554Z" fill="url(#paint1_linear_439_16743)"/>
<circle cx="160.528" cy="33.3259" r="11.5609" transform="rotate(-90 160.528 33.3259)" fill="#CDF200"/>
<defs>
<linearGradient id="paint0_linear_439_16743" x1="127.603" y1="33.6714" x2="127.603" y2="123.816" gradientUnits="userSpaceOnUse">
<stop stop-color="#B7C2EA" stop-opacity="0.4"/>
<stop offset="0.432292" stop-color="#B7C2EA"/>
<stop offset="0.609375" stop-color="#B7C2EA"/>
<stop offset="1" stop-color="#B7C2EA" stop-opacity="0.4"/>
</linearGradient>
<linearGradient id="paint1_linear_439_16743" x1="160.104" y1="-0.379428" x2="160.104" y2="89.7656" gradientUnits="userSpaceOnUse">
<stop stop-color="#B7C2EA" stop-opacity="0.4"/>
<stop offset="0.432292" stop-color="#B7C2EA"/>
<stop offset="0.609375" stop-color="#B7C2EA"/>
<stop offset="1" stop-color="#B7C2EA" stop-opacity="0.4"/>
</linearGradient>
</defs>
</svg>
