<svg width="24" height="24" viewBox="0 0 24 24" fill="none" xmlns="http://www.w3.org/2000/svg">
<path fill-rule="evenodd" clip-rule="evenodd" d="M8.14644 0.146447C8.24021 0.0526784 8.36739 0 8.49999 0H16.5C16.7761 0 17 0.223858 17 0.5V14.4779L17.3915 14.3909C17.4231 14.3839 17.4547 14.38 17.4859 14.3791C17.4645 14.2142 17.4477 14.0566 17.4362 13.9079C17.4251 13.7624 17.478 13.6192 17.5812 13.516C17.738 13.3592 17.9449 13.2463 18.1437 13.1611C18.3496 13.0728 18.5854 12.9984 18.8308 12.9348C19.3217 12.8075 19.8926 12.713 20.4266 12.6434C20.9631 12.5734 21.4745 12.5269 21.851 12.498C22.0396 12.4835 22.195 12.4733 22.3036 12.4667C22.358 12.4634 22.4007 12.4611 22.43 12.4595L22.4637 12.4577L22.4727 12.4573L22.4752 12.4572C22.4752 12.4572 22.4762 12.4571 22.5 12.9565L22.4762 12.4571C22.6128 12.4506 22.7461 12.5003 22.845 12.5947C22.944 12.689 23 12.8198 23 12.9565V21.1739C23 21.4501 22.7761 21.6739 22.5 21.6739H19.761C19.5458 21.6739 19.3545 21.5361 19.2865 21.3319C19.2865 21.332 19.2865 21.332 19.7609 21.1739L19.2865 21.3319L19.2815 21.317L19.2674 21.2744C19.2552 21.2371 19.2372 21.1823 19.2143 21.1119C19.1908 21.0394 19.162 20.9503 19.1289 20.8466L12.6285 23.0134C11.707 23.3816 11.0757 23.5845 10.1625 23.4367C9.31629 23.2999 8.22336 22.8588 6.33414 22.0941C6.32765 22.0915 6.32121 22.0887 6.31484 22.0858L1.2931 19.8032C1.16945 19.747 1.07399 19.643 1.02867 19.5149C0.983339 19.3869 0.992046 19.2459 1.05279 19.1244C1.28382 18.6624 1.61107 18.282 1.99999 17.9978V6.5C1.99999 6.36739 2.05267 6.24021 2.14644 6.14645L8.14644 0.146447ZM16 14.5C16 14.5679 16.0135 14.6327 16.0381 14.6917L9.60476 16.1213C8.95295 16.2717 8.38817 16.5363 7.98739 16.9816C7.6728 17.3312 7.48911 17.7587 7.42128 18.2508L4.549 17.495L4.53418 17.4913C4.011 17.3706 3.48632 17.3847 2.99999 17.5171V7H8.49999C8.77614 7 8.99999 6.77614 8.99999 6.5V1H16V14.5ZM7.99999 1.70711L3.7071 6H7.99999V1.70711ZM7.73107 19.3649C7.71844 19.3625 7.70581 19.3597 7.69318 19.3564L4.30225 18.4641C3.51519 18.2851 2.73613 18.5482 2.23655 19.1336L6.71908 21.1711C8.65811 21.956 9.6175 22.3356 10.3222 22.4496C10.9568 22.5522 11.3738 22.4383 12.2708 22.0795C12.2799 22.0758 12.2891 22.0725 12.2984 22.0694L18.8309 19.8919C18.7097 19.4941 18.5736 19.0363 18.4353 18.5484C18.1498 17.5419 17.8478 16.3847 17.6478 15.3567C17.635 15.3606 17.6218 15.3641 17.6085 15.3671L9.8277 17.0962C9.29363 17.2197 8.94595 17.4114 8.73068 17.6506C8.55402 17.8469 8.4323 18.1132 8.39979 18.4954L9.19049 18.6778L9.19932 18.68C9.48491 18.7514 9.85813 18.7514 10.1437 18.68C10.15 18.6784 10.1563 18.677 10.1626 18.6756L14.0887 17.8539C14.359 17.7973 14.6239 17.9706 14.6805 18.2409C14.7371 18.5112 14.5638 18.7761 14.2936 18.8327L10.3763 19.6526C9.93497 19.7609 9.40209 19.7605 8.96145 19.6513L7.77868 19.3783C7.76246 19.3746 7.74658 19.3701 7.73107 19.3649ZM20.1237 20.6739C20.0838 20.55 20.0345 20.3957 19.9782 20.2165C19.8223 19.7204 19.6126 19.0346 19.3973 18.2756C18.9974 16.8652 18.5911 15.2454 18.4609 14.1152C18.4839 14.104 18.5094 14.0923 18.5376 14.0802C18.6812 14.0187 18.8649 13.959 19.0817 13.9028C19.5152 13.7904 20.04 13.7023 20.556 13.635C21.0695 13.568 21.5624 13.5231 21.9277 13.495L22 13.4895V20.6739H20.1237Z" fill="#17253D"/>
</svg>
