<svg width="16" height="16" viewBox="0 0 16 16" fill="none" xmlns="http://www.w3.org/2000/svg">
<path fill-rule="evenodd" clip-rule="evenodd" d="M5.09196 0.734835C5.16228 0.664509 5.25767 0.625 5.35712 0.625H10.5C10.7071 0.625 10.875 0.792893 10.875 1V9.71127L11.6104 9.54784C11.5986 9.45292 11.5893 9.36178 11.5826 9.27515C11.5742 9.166 11.6139 9.05863 11.6913 8.98123C11.8013 8.87124 11.9448 8.7934 12.0794 8.73575C12.2192 8.67581 12.3786 8.62557 12.5434 8.58285C12.8731 8.49737 13.2556 8.43412 13.6123 8.38758C13.9709 8.34081 14.3127 8.30977 14.5642 8.29043C14.6901 8.28074 14.7939 8.27395 14.8666 8.26956C14.9029 8.26737 14.9314 8.26577 14.9511 8.26472L14.9737 8.26354L14.9797 8.26324L14.9821 8.26312C15.0846 8.25824 15.1845 8.29553 15.2588 8.3663C15.333 8.43707 15.375 8.53514 15.375 8.6377V14.116C15.375 14.3231 15.2071 14.491 15 14.491H13.1741C13.0127 14.491 12.8692 14.3876 12.8181 14.2345L12.8148 14.2244L12.8054 14.1959L12.7699 14.0875L12.7258 13.9506L8.43335 15.3814C7.81818 15.6271 7.38849 15.7659 6.76838 15.6656C6.19836 15.5734 5.46426 15.2769 4.20713 14.768C4.20226 14.7661 4.19743 14.764 4.19265 14.7618L0.844824 13.2401C0.75209 13.1979 0.680495 13.1199 0.6465 13.0238C0.612504 12.9278 0.619035 12.8221 0.66459 12.731C0.783784 12.4926 0.940675 12.2862 1.12498 12.116V4.85714C1.12498 4.75769 1.16449 4.6623 1.23481 4.59198L5.09196 0.734835ZM10.125 1.375V9.87793L6.39398 10.707C5.95458 10.8084 5.56904 10.9879 5.29413 11.2933C5.08799 11.5224 4.96447 11.7994 4.91339 12.1151L3.0322 11.6201C2.63528 11.5285 2.23696 11.5512 1.87498 11.6723V5.23201H5.35712C5.56423 5.23201 5.73212 5.06412 5.73212 4.85701V1.375H10.125ZM4.98212 1.90533L2.40544 4.48201H4.98212V1.90533ZM5.18773 12.9622C5.1803 12.9607 5.17286 12.959 5.16543 12.957L2.85825 12.3498C2.36802 12.2386 1.88335 12.392 1.55973 12.7412L4.49583 14.0758C5.7903 14.5997 6.42425 14.8502 6.88814 14.9252C7.29937 14.9918 7.56836 14.9196 8.16508 14.681C8.1719 14.6782 8.1788 14.6757 8.18576 14.6734L12.5022 13.2345C12.4244 12.9784 12.3379 12.6868 12.2501 12.377C12.0639 11.7203 11.8665 10.9657 11.7328 10.2889L6.5612 11.4382C6.21011 11.5194 5.98739 11.6442 5.8516 11.7951C5.7464 11.9119 5.67036 12.0701 5.64506 12.298L6.13654 12.4113L6.14316 12.413C6.32692 12.4589 6.56879 12.4589 6.75255 12.413L6.76668 12.4097L9.3841 11.8619C9.58682 11.8195 9.78554 11.9494 9.82797 12.1521C9.8704 12.3549 9.74046 12.5536 9.53775 12.596L6.92696 13.1425C6.62641 13.2161 6.26479 13.2158 5.96477 13.1415L5.18773 12.9622ZM13.4461 13.741C13.4213 13.6638 13.3918 13.571 13.3585 13.4652C13.2547 13.1347 13.115 12.6779 12.9716 12.1723C12.7083 11.244 12.442 10.183 12.3521 9.43509L12.3748 9.42511C12.468 9.38518 12.5882 9.34601 12.7316 9.30885C13.0182 9.23455 13.3661 9.17606 13.7093 9.13128C14.0508 9.08675 14.3786 9.05692 14.6217 9.03822L14.625 9.03797V13.741H13.4461Z" fill="#17253D"/>
</svg>
