<svg width="129" height="18" viewBox="0 0 129 18" fill="none" xmlns="http://www.w3.org/2000/svg">
<path d="M9.03347 0.867188H13.5394V11.1074C13.5394 12.848 13.2521 14.1576 12.6583 15.0626C11.49 16.8487 9.51231 17.9118 6.84274 17.9118C5.3631 17.9118 4.10133 17.6412 3.0766 17.0762C1.00079 15.9222 0 14.3611 0 11.1289V0.867188H4.50596V11.0619C4.50596 13.1425 5.19789 14.1576 6.79485 14.1576C8.39181 14.1576 9.03586 13.4346 9.03586 11.0834V0.867188H9.03347Z" fill="#030A40"/>
<path d="M24.8117 17.5916V10.6291C24.8117 8.934 24.1916 8.1439 22.7383 8.1439C21.1413 8.1439 20.4733 8.97949 20.4733 10.6746V17.5916H16.5156V5.04576H20.2099V6.37935H20.2578C21.091 5.09125 22.2594 4.61719 23.8564 4.61719C26.241 4.61719 28.7669 5.88374 28.7669 9.59002V17.5916H24.8093H24.8117Z" fill="#030A40"/>
<path d="M35.2799 5.04688H31.3223V17.5927H35.2799V5.04688Z" fill="#030A40"/>
<path d="M96.4577 5.04688H92.5V17.5927H96.4577V5.04688Z" fill="#030A40"/>
<path d="M45.9029 17.5915V7.8948H42.4935V17.5915H38.5358V7.8948H37.0586V5.04565H38.5358V4.43512C38.5358 1.92596 39.9437 0.546875 43.6619 0.546875H44.1862V3.37447H43.9013C42.9005 3.37447 42.4935 3.82698 42.4935 4.64102V5.04805H49.8582V17.5939H45.9005L45.9029 17.5915Z" fill="#030A40"/>
<path d="M55.9117 12.4631C56.1272 13.8877 57.389 14.8358 59.0099 14.8358C60.0825 14.8358 60.7744 14.4503 61.4185 13.6602H65.4696C64.2054 16.3968 61.7992 18.001 59.0099 18.001C55.1959 18.001 52.002 15.0848 52.002 11.3546C52.002 7.62435 55.0522 4.61719 58.9381 4.61719C62.8239 4.61719 65.9221 7.57886 65.9221 11.4671C65.9221 11.8286 65.8981 12.1231 65.8263 12.4607H55.9094L55.9117 12.4631ZM61.9668 9.9324C61.6555 8.6443 60.4656 7.78477 58.9405 7.78477C57.5111 7.78477 56.2709 8.59881 55.962 9.9324H61.9692H61.9668Z" fill="#030A40"/>
<path d="M78.127 17.5933V16.2382H78.0791C77.3393 17.3898 76.0057 18.0004 74.1214 18.0004C70.1158 18.0004 67.4941 15.0842 67.4941 11.2869C67.4941 7.48966 70.1877 4.61896 74.0496 4.61896C75.5747 4.61896 76.8149 5.04753 77.9354 6.11057V0.867188H81.8931V17.5933H78.127ZM78.1509 11.263C78.1509 9.52237 76.7455 8.12173 74.7894 8.12173C72.8333 8.12173 71.4518 9.43378 71.4518 11.263C71.4518 13.0922 72.8572 14.4952 74.7654 14.4952C76.6737 14.4952 78.1509 13.1161 78.1509 11.263Z" fill="#030A40"/>
<path d="M99.7422 17.5933V0.867188H105.749C107.942 0.867188 109.683 1.22872 110.923 1.88474C113.425 3.23988 114.998 5.81848 114.998 9.23027C114.998 14.7466 111.565 17.5933 106.061 17.5933H99.7446H99.7422ZM106.274 13.8416C108.871 13.8416 110.492 12.3045 110.492 9.25182C110.492 6.19916 108.895 4.61657 106.298 4.61657H104.248V13.8416H106.274Z" fill="#030A40"/>
<path d="M96.6555 2.06383C96.6555 3.20349 95.681 4.12767 94.4791 4.12767C93.2772 4.12767 92.3027 3.20349 92.3027 2.06383C92.3027 0.924176 93.2748 0 94.4791 0C95.6834 0 96.6555 0.924176 96.6555 2.06383Z" fill="#030A40"/>
<path d="M48.1842 4.13006C46.9823 4.13006 46.0078 3.20589 46.0078 2.06623C46.0078 0.926571 46.9823 0 48.1842 0C49.3861 0 50.3605 0.924177 50.3605 2.06623C50.3605 3.20828 49.3861 4.13006 48.1842 4.13006Z" fill="#030A40"/>
<path d="M35.4777 2.06383C35.4777 3.20349 34.5033 4.12767 33.3014 4.12767C32.0995 4.12767 31.125 3.20349 31.125 2.06383C31.125 0.924176 32.0971 0 33.299 0C34.5009 0 35.4753 0.924176 35.4753 2.06383" fill="#030A40"/>
<path d="M117.042 17.3658V16.1878C117.811 15.7137 118.369 15.3139 118.716 14.9763C119.427 14.294 119.815 13.6858 119.815 13.2285C119.815 12.8838 119.571 12.6515 119.223 12.6515C118.783 12.6515 118.539 12.9484 118.505 13.5901H116.982C116.982 12.2038 117.887 11.3203 119.281 11.3203C120.557 11.3203 121.412 12.1056 121.412 13.0442C121.412 13.9827 120.863 14.847 119.334 16.0896H121.455V17.3634H117.042V17.3658Z" fill="#030A40"/>
<path d="M127.288 13.5086C127.288 12.9867 127.061 12.6515 126.553 12.6515C126.079 12.6515 125.818 13.0035 125.818 13.5086V15.2876C125.818 15.7999 126.079 16.1447 126.553 16.1447C127.061 16.1447 127.288 15.8071 127.288 15.2876V13.5086ZM128.885 15.2564C128.885 16.6283 127.82 17.4783 126.577 17.4783C125.334 17.4783 124.219 16.6212 124.219 15.2564V13.5158C124.219 12.1056 125.394 11.3203 126.56 11.3203C127.82 11.3203 128.885 12.187 128.885 13.5015V15.2564Z" fill="#030A40"/>
<path d="M123.917 16.711C123.917 17.1611 123.531 17.5274 123.055 17.5274C122.578 17.5274 122.195 17.1611 122.195 16.711C122.195 16.2609 122.581 15.8945 123.055 15.8945C123.529 15.8945 123.917 16.2585 123.917 16.711Z" fill="#030A40"/>
</svg>
